<svg xmlns="http://www.w3.org/2000/svg" xmlns:xlink="http://www.w3.org/1999/xlink" width="151.693" height="120.56" viewBox="0 0 113.77 90.42"><path stroke-width=".398" stroke-miterlimit="10" fill="none" stroke="#000" d="M-122.725-2.908h343.711"/><path stroke-width=".797" stroke-miterlimit="10" fill="none" stroke="#000" d="M41.658 54.744V4.931"/><symbol id="a"><path d="M.44 0a2.25 2.25 0 0 0-.219.598H.219A2.25 2.25 0 0 0 0 0h.44z"/></symbol><symbol id="b"><path d="M1.068 1.011a.045.045 0 0 1 .012.029.04.04 0 0 1-.04.04.045.045 0 0 1-.029-.012l-.999-1A.044.044 0 0 1 0 .04.04.04 0 0 1 .04 0c.01 0 .02.005.028.012l1 .999z"/></symbol><symbol id="c"><path d="M.267.578A2.313 2.313 0 0 0 0 .001L.001 0c.178.115.372.204.577.267L.267.578z"/></symbol><use xlink:href="#a" transform="matrix(9.9626 0 0 -9.9626 39.466 10.908)"/><use xlink:href="#b" transform="matrix(9.9626 0 0 -9.9626 31.298 65.105)"/><use xlink:href="#b" transform="matrix(9.9626 0 0 -9.9626 21.334 75.068)"/><use xlink:href="#b" transform="matrix(9.9626 0 0 -9.9626 11.371 85.03)"/><use xlink:href="#c" transform="matrix(9.9626 0 0 -9.9626 11.78 84.621)"/><path stroke-width=".797" stroke-miterlimit="10" fill="none" stroke="#000" d="M41.658 54.744h49.813"/><symbol id="d"><path d="M.598.221A2.25 2.25 0 0 0 0 .44V0c.189.101.389.175.598.219v.002z"/></symbol><use xlink:href="#d" transform="matrix(9.9626 0 0 -9.9626 85.494 56.936)"/><symbol id="e"><path d="M.261 0h.201v.015C.431.015.411.031.38.075L.252.271l.083.12a.103.103 0 0 0 .081.044V.45H.258V.435c.03-.002.04-.008.04-.022C.298.401.286.379.261.348a.703.703 0 0 1-.03-.044l-.014.02a.268.268 0 0 0-.046.089c0 .014.013.021.043.022V.45H.007V.435h.009c.03 0 .046-.013.077-.06L.187.231.073.066C.043.025.033.018 0 .015V0h.145v.015c-.028 0-.04.005-.04.018 0 .006.007.021.02.041l.079.123.091-.14A.032.032 0 0 0 .301.039C.301.021.294.017.261.015V0z"/></symbol><symbol id="f"><path d="M.461.668H.326V.653C.358.653.374.644.374.628A.045.045 0 0 0 .37.611L.273.335.158.588a.102.102 0 0 0-.01.038c0 .018.015.025.058.027v.015H0V.654C.026.65.043.639.051.622L.165.376.168.368l.015-.03A.319.319 0 0 0 .227.237a.407.407 0 0 0-.04-.108C.173.103.151.084.137.084a.06.06 0 0 0-.025.007.152.152 0 0 1-.053.011.044.044 0 0 1-.043-.044C.016.025.048 0 .09 0c.067 0 .115.056.169.2l.154.408C.426.64.437.65.461.653v.015z"/></symbol><symbol id="g"><path d="M.391.135.373.139C.363.089.357.073.344.056.33.039.296.03.245.03H.107l.269.405V.45H.029L.026.332h.018C.053.405.068.42.128.42h.138L0 .015V0h.377l.014.135z"/></symbol><use xlink:href="#e" transform="matrix(9.9626 0 0 -9.9626 11.94 69.688)"/><use xlink:href="#f" transform="matrix(9.9626 0 0 -9.9626 91.61 46.953)"/><use xlink:href="#g" transform="matrix(9.9626 0 0 -9.9626 26.983 14.893)"/><symbol id="h"><path d="M1.052.335a.04.04 0 0 1 .028.038.04.04 0 0 1-.053.038L.028.077A.04.04 0 0 1 0 .04.04.04 0 0 1 .04 0l.012.003 1 .332z"/></symbol><symbol id="i"><path d="M.139 0c.148.155.315.288.498.397v.001A2.307 2.307 0 0 0 0 .417L.139 0z"/></symbol><use xlink:href="#h" transform="matrix(9.9626 0 0 -9.9626 6.39 145.802)"/><use xlink:href="#h" transform="matrix(9.9626 0 0 -9.9626 16.354 142.482)"/><use xlink:href="#h" transform="matrix(9.9626 0 0 -9.9626 26.316 139.16)"/><use xlink:href="#h" transform="matrix(9.9626 0 0 -9.9626 36.279 135.84)"/><use xlink:href="#h" transform="matrix(9.9626 0 0 -9.9626 46.242 132.519)"/><use xlink:href="#h" transform="matrix(9.9626 0 0 -9.9626 56.204 129.198)"/><use xlink:href="#h" transform="matrix(9.9626 0 0 -9.9626 66.167 125.877)"/><use xlink:href="#h" transform="matrix(9.9626 0 0 -9.9626 76.129 122.556)"/><use xlink:href="#h" transform="matrix(9.9626 0 0 -9.9626 86.092 119.236)"/><use xlink:href="#h" transform="matrix(9.9626 0 0 -9.9626 96.055 115.915)"/><use xlink:href="#i" transform="matrix(9.9626 0 0 -9.9626 100.05 116.164)"/><symbol id="j"><path d="M.464.475H.313V.451C.356.449.368.442.368.418A.138.138 0 0 0 .357.373L.285.191.206.394a.1.1 0 0 0-.009.031c0 .015.01.022.035.024L.25.451v.024H0V.451C.023.448.029.445.035.436A1.52 1.52 0 0 0 .1.296L.22 0h.026l.16.396C.425.44.433.448.464.451v.024z"/></symbol><use xlink:href="#j" transform="matrix(9.9626 0 0 -9.9626 46.85 120.637)"/><use xlink:href="#h" transform="matrix(9.9626 0 0 -9.9626 -103.198 206.575)"/><use xlink:href="#h" transform="matrix(9.9626 0 0 -9.9626 -93.235 203.254)"/><use xlink:href="#h" transform="matrix(9.9626 0 0 -9.9626 -83.273 199.933)"/><use xlink:href="#h" transform="matrix(9.9626 0 0 -9.9626 -73.31 196.612)"/><use xlink:href="#h" transform="matrix(9.9626 0 0 -9.9626 -63.347 193.29)"/><use xlink:href="#h" transform="matrix(9.9626 0 0 -9.9626 -53.385 189.97)"/><use xlink:href="#h" transform="matrix(9.9626 0 0 -9.9626 -43.422 186.649)"/><use xlink:href="#h" transform="matrix(9.9626 0 0 -9.9626 -33.46 183.329)"/><use xlink:href="#h" transform="matrix(9.9626 0 0 -9.9626 -23.497 180.008)"/><use xlink:href="#h" transform="matrix(9.9626 0 0 -9.9626 -13.534 176.687)"/><use xlink:href="#i" transform="matrix(9.9626 0 0 -9.9626 -9.54 176.936)"/></svg>