<svg xmlns="http://www.w3.org/2000/svg" width="480" height="479.232" viewBox="0 0 360 359.424"><clipPath id="a"><path transform="translate(-57 -11)" d="M57 11v359.424h360V11" fill-rule="evenodd"/></clipPath><g clip-path="url(#a)"><path d="M0 0h360v360H0z" fill="#fff" fill-rule="evenodd"/><clipPath id="b"><path transform="translate(-57 -11)" d="M55 9v364h364V9" fill-rule="evenodd"/></clipPath><g clip-path="url(#b)"><clipPath id="c"><path transform="translate(-57 -11)" d="M57 10v361h360V10" fill-rule="evenodd"/></clipPath><g clip-path="url(#c)"><path d="M8.7 352.512a1.503 1.503 0 0 0-1.5-1.5 1.503 1.503 0 0 0-1.5 1.5 1.503 1.503 0 0 0 1.5 1.5 1.503 1.503 0 0 0 1.5-1.5zM354.3 6.912a1.503 1.503 0 0 0-1.5-1.5 1.503 1.503 0 0 0-1.5 1.5 1.503 1.503 0 0 0 1.5 1.5 1.503 1.503 0 0 0 1.5-1.5z" fill-rule="evenodd"/><path stroke-width=".5" stroke-miterlimit="3.25" fill="none" stroke="#000" d="M237.6 179.712h12.846"/><path d="m249.8 177.87.103.209.224.503.119.302.104.305.071.284.025.239-.025.216-.071.28-.104.315-.119.322-.224.549-.103.234 7-1.916-7-1.842z" fill-rule="evenodd"/><path stroke-width=".1" stroke-linecap="square" stroke-linejoin="bevel" fill="none" stroke="#000" d="m249.8 177.87.103.209.224.503.119.302.104.305.071.284.025.239-.025.216-.071.28-.104.315-.119.322-.224.549-.103.234 7-1.916-7-1.842z"/><path d="M8.7 352.512a1.503 1.503 0 0 0-1.5-1.5 1.503 1.503 0 0 0-1.5 1.5 1.503 1.503 0 0 0 1.5 1.5 1.503 1.503 0 0 0 1.5-1.5zM354.3 6.912a1.503 1.503 0 0 0-1.5-1.5 1.503 1.503 0 0 0-1.5 1.5 1.503 1.503 0 0 0 1.5 1.5 1.503 1.503 0 0 0 1.5-1.5z" fill="#050505" fill-rule="evenodd"/><path stroke-width=".5" stroke-miterlimit="3.25" fill="none" stroke="#050505" d="m236.891 170.701 12.688-2.009"/><path d="m248.652 166.973.135.191.3.462.165.28.15.284.115.269.062.233.009.217-.027.288-.052.327-.068.337-.136.577-.065.247 6.614-2.987-7.202-.725z" fill="#060606" fill-rule="evenodd"/><path stroke-width=".1" stroke-linecap="square" stroke-linejoin="bevel" fill="none" stroke="#060606" d="m248.652 166.973.135.191.3.462.165.28.15.284.115.269.062.233.009.217-.027.288-.052.327-.068.337-.136.577-.065.247 6.614-2.987-7.202-.725z"/><path d="M8.7 352.512a1.503 1.503 0 0 0-1.5-1.5 1.503 1.503 0 0 0-1.5 1.5 1.503 1.503 0 0 0 1.5 1.5 1.503 1.503 0 0 0 1.5-1.5zM354.3 6.912a1.503 1.503 0 0 0-1.5-1.5 1.503 1.503 0 0 0-1.5 1.5 1.503 1.503 0 0 0 1.5 1.5 1.503 1.503 0 0 0 1.5-1.5z" fill="#0e0e0e" fill-rule="evenodd"/><path stroke-width=".5" stroke-miterlimit="3.25" fill="none" stroke="#0e0e0e" d="m234.781 161.913 12.217-3.97"/><path d="m245.814 156.391.163.167.369.409.207.25.192.258.156.248.097.22.044.213.018.289-.001.331-.014.343-.044.592-.025.254 6.065-3.986-7.227.412z" fill="#0d0d0d" fill-rule="evenodd"/><path stroke-width=".1" stroke-linecap="square" stroke-linejoin="bevel" fill="none" stroke="#0d0d0d" d="m245.814 156.391.163.167.369.409.207.25.192.258.156.248.097.22.044.213.018.289-.001.331-.014.343-.044.592-.025.254 6.065-3.986-7.227.412z"/><path d="M8.7 352.512a1.503 1.503 0 0 0-1.5-1.5 1.503 1.503 0 0 0-1.5 1.5 1.503 1.503 0 0 0 1.5 1.5 1.503 1.503 0 0 0 1.5-1.5zM354.3 6.912a1.503 1.503 0 0 0-1.5-1.5 1.503 1.503 0 0 0-1.5 1.5 1.503 1.503 0 0 0 1.5 1.5 1.503 1.503 0 0 0 1.5-1.5z" fill="#181818" fill-rule="evenodd"/><path stroke-width=".5" stroke-miterlimit="3.25" fill="none" stroke="#181818" d="m231.322 153.562 11.446-5.832"/><path d="m241.356 146.382.187.14.428.346.243.215.231.225.192.22.131.202.076.204.063.282.051.328.04.34.049.592.015.254 5.367-4.884-7.073 1.536z" fill="#131313" fill-rule="evenodd"/><path stroke-width=".1" stroke-linecap="square" stroke-linejoin="bevel" fill="none" stroke="#131313" d="m241.356 146.382.187.14.428.346.243.215.231.225.192.22.131.202.076.204.063.282.051.328.04.34.049.592.015.254 5.367-4.884-7.073 1.536z"/><path d="M8.7 352.512a1.503 1.503 0 0 0-1.5-1.5 1.503 1.503 0 0 0-1.5 1.5 1.503 1.503 0 0 0 1.5 1.5 1.503 1.503 0 0 0 1.5-1.5zM354.3 6.912a1.503 1.503 0 0 0-1.5-1.5 1.503 1.503 0 0 0-1.5 1.5 1.503 1.503 0 0 0 1.5 1.5 1.503 1.503 0 0 0 1.5-1.5z" fill="#222" fill-rule="evenodd"/><path stroke-width=".5" stroke-miterlimit="3.25" fill="none" stroke="#222" d="m226.599 145.856 10.393-7.551"/><path d="m235.387 137.194.206.109.477.275.274.175.263.185.225.188.16.179.107.189.107.269.102.316.092.33.141.576.054.249 4.538-5.664-6.746 2.624z" fill="#1a1a1a" fill-rule="evenodd"/><path stroke-width=".1" stroke-linecap="square" stroke-linejoin="bevel" fill="none" stroke="#1a1a1a" d="m235.387 137.194.206.109.477.275.274.175.263.185.225.188.16.179.107.189.107.269.102.316.092.33.141.576.054.249 4.538-5.664-6.746 2.624z"/><path d="M8.7 352.512a1.503 1.503 0 0 0-1.5-1.5 1.503 1.503 0 0 0-1.5 1.5 1.503 1.503 0 0 0 1.5 1.5 1.503 1.503 0 0 0 1.5-1.5zM354.3 6.912a1.503 1.503 0 0 0-1.5-1.5 1.503 1.503 0 0 0-1.5 1.5 1.503 1.503 0 0 0 1.5 1.5 1.503 1.503 0 0 0 1.5-1.5z" fill="#2a2a2a" fill-rule="evenodd"/><path stroke-width=".5" stroke-miterlimit="3.25" fill="none" stroke="#2a2a2a" d="m220.729 138.983 9.084-9.084"/><path d="m228.053 129.053.221.076.514.197.298.129.289.143.251.149.187.152.136.171.147.248.15.296.143.312.229.547.093.238 3.595-6.305-6.253 3.647z" fill="#202020" fill-rule="evenodd"/><path stroke-width=".1" stroke-linecap="square" stroke-linejoin="bevel" fill="none" stroke="#202020" d="m228.053 129.053.221.076.514.197.298.129.289.143.251.149.187.152.136.171.147.248.15.296.143.312.229.547.093.238 3.595-6.305-6.253 3.647z"/><path d="M8.7 352.512a1.503 1.503 0 0 0-1.5-1.5 1.503 1.503 0 0 0-1.5 1.5 1.503 1.503 0 0 0 1.5 1.5 1.503 1.503 0 0 0 1.5-1.5zM354.3 6.912a1.503 1.503 0 0 0-1.5-1.5 1.503 1.503 0 0 0-1.5 1.5 1.503 1.503 0 0 0 1.5 1.5 1.503 1.503 0 0 0 1.5-1.5z" fill="#333" fill-rule="evenodd"/><path stroke-width=".5" stroke-miterlimit="3.25" fill="none" stroke="#333" d="m213.856 133.113 7.551-10.393"/><path d="m219.537 122.16.23.04.539.114.314.081.308.096.271.108.208.121.161.147.184.223.194.268.19.286.313.504.128.221 2.565-6.79-5.605 4.581z" fill="#262626" fill-rule="evenodd"/><path stroke-width=".1" stroke-linecap="square" stroke-linejoin="bevel" fill="none" stroke="#262626" d="m219.537 122.16.23.04.539.114.314.081.308.096.271.108.208.121.161.147.184.223.194.268.19.286.313.504.128.221 2.565-6.79-5.605 4.581z"/><path d="M8.7 352.512a1.503 1.503 0 0 0-1.5-1.5 1.503 1.503 0 0 0-1.5 1.5 1.503 1.503 0 0 0 1.5 1.5 1.503 1.503 0 0 0 1.5-1.5zM354.3 6.912a1.503 1.503 0 0 0-1.5-1.5 1.503 1.503 0 0 0-1.5 1.5 1.503 1.503 0 0 0 1.5 1.5 1.503 1.503 0 0 0 1.5-1.5z" fill="#3b3b3b" fill-rule="evenodd"/><path stroke-width=".5" stroke-miterlimit="3.25" fill="none" stroke="#3b3b3b" d="m206.15 128.39 5.832-11.446"/><path d="m210.047 116.683.233.004.55.028.324.031.318.047.286.064.224.087.181.12.217.191.234.235.233.253.387.449.161.197 1.471-7.106-4.819 5.4z" fill="#2d2d2d" fill-rule="evenodd"/><path stroke-width=".1" stroke-linecap="square" stroke-linejoin="bevel" fill="none" stroke="#2d2d2d" d="m210.047 116.683.233.004.55.028.324.031.318.047.286.064.224.087.181.12.217.191.234.235.233.253.387.449.161.197 1.471-7.106-4.819 5.4z"/><path d="M8.7 352.512a1.503 1.503 0 0 0-1.5-1.5 1.503 1.503 0 0 0-1.5 1.5 1.503 1.503 0 0 0 1.5 1.5 1.503 1.503 0 0 0 1.5-1.5zM354.3 6.912a1.503 1.503 0 0 0-1.5-1.5 1.503 1.503 0 0 0-1.5 1.5 1.503 1.503 0 0 0 1.5 1.5 1.503 1.503 0 0 0 1.5-1.5z" fill="#424242" fill-rule="evenodd"/><path stroke-width=".5" stroke-miterlimit="3.25" fill="none" stroke="#424242" d="m197.799 124.931 3.97-12.217"/><path d="m199.817 112.759.231-.033.548-.058.324-.02.322-.004.292.019.235.051.198.09.244.155.268.195.269.213.453.383.19.17.342-7.249-3.916 6.088z" fill="#333" fill-rule="evenodd"/><path stroke-width=".1" stroke-linecap="square" stroke-linejoin="bevel" fill="none" stroke="#333" d="m199.817 112.759.231-.033.548-.058.324-.02.322-.004.292.019.235.051.198.09.244.155.268.195.269.213.453.383.19.17.342-7.249-3.916 6.088z"/><path d="M8.7 352.512a1.503 1.503 0 0 0-1.5-1.5 1.503 1.503 0 0 0-1.5 1.5 1.503 1.503 0 0 0 1.5 1.5 1.503 1.503 0 0 0 1.5-1.5zM354.3 6.912a1.503 1.503 0 0 0-1.5-1.5 1.503 1.503 0 0 0-1.5 1.5 1.503 1.503 0 0 0 1.5 1.5 1.503 1.503 0 0 0 1.5-1.5z" fill="#4a4a4a" fill-rule="evenodd"/><path stroke-width=".5" stroke-miterlimit="3.25" fill="none" stroke="#4a4a4a" d="m189.011 122.821 2.009-12.688"/><path d="m189.1 110.483.223-.068.531-.144.317-.07.318-.054.291-.027.24.013.21.058.265.115.295.151.299.168.508.308.214.138-.797-7.213-2.914 6.625z" fill="#393939" fill-rule="evenodd"/><path stroke-width=".1" stroke-linecap="square" stroke-linejoin="bevel" fill="none" stroke="#393939" d="m189.1 110.483.223-.068.531-.144.317-.07.318-.054.291-.027.24.013.21.058.265.115.295.151.299.168.508.308.214.138-.797-7.213-2.914 6.625z"/><path d="M8.7 352.512a1.503 1.503 0 0 0-1.5-1.5 1.503 1.503 0 0 0-1.5 1.5 1.503 1.503 0 0 0 1.5 1.5 1.503 1.503 0 0 0 1.5-1.5zM354.3 6.912a1.503 1.503 0 0 0-1.5-1.5 1.503 1.503 0 0 0-1.5 1.5 1.503 1.503 0 0 0 1.5 1.5 1.503 1.503 0 0 0 1.5-1.5z" fill="#515151" fill-rule="evenodd"/><path stroke-width=".5" stroke-miterlimit="3.25" fill="none" stroke="#515151" d="M180 122.112v-12.846"/><path d="m178.158 109.912.209-.103.503-.224.302-.119.305-.104.284-.071.239-.025.216.025.28.071.315.104.322.119.549.224.234.103-1.916-7-1.842 7z" fill="#404040" fill-rule="evenodd"/><path stroke-width=".1" stroke-linecap="square" stroke-linejoin="bevel" fill="none" stroke="#404040" d="m178.158 109.912.209-.103.503-.224.302-.119.305-.104.284-.071.239-.025.216.025.28.071.315.104.322.119.549.224.234.103-1.916-7-1.842 7z"/><path d="M8.7 352.512a1.503 1.503 0 0 0-1.5-1.5 1.503 1.503 0 0 0-1.5 1.5 1.503 1.503 0 0 0 1.5 1.5 1.503 1.503 0 0 0 1.5-1.5zM354.3 6.912a1.503 1.503 0 0 0-1.5-1.5 1.503 1.503 0 0 0-1.5 1.5 1.503 1.503 0 0 0 1.5 1.5 1.503 1.503 0 0 0 1.5-1.5z" fill="#585858" fill-rule="evenodd"/><path stroke-width=".5" stroke-miterlimit="3.25" fill="none" stroke="#585858" d="m170.989 122.821-2.009-12.688"/><path d="m167.261 111.06.191-.135.462-.3.28-.165.284-.15.269-.115.233-.062.217-.009.288.027.327.052.337.068.577.136.247.065-2.987-6.614-.725 7.202z" fill="#464646" fill-rule="evenodd"/><path stroke-width=".1" stroke-linecap="square" stroke-linejoin="bevel" fill="none" stroke="#464646" d="m167.261 111.06.191-.135.462-.3.28-.165.284-.15.269-.115.233-.062.217-.009.288.027.327.052.337.068.577.136.247.065-2.987-6.614-.725 7.202z"/><path d="M8.7 352.512a1.503 1.503 0 0 0-1.5-1.5 1.503 1.503 0 0 0-1.5 1.5 1.503 1.503 0 0 0 1.5 1.5 1.503 1.503 0 0 0 1.5-1.5zM354.3 6.912a1.503 1.503 0 0 0-1.5-1.5 1.503 1.503 0 0 0-1.5 1.5 1.503 1.503 0 0 0 1.5 1.5 1.503 1.503 0 0 0 1.5-1.5z" fill="#5f5f5f" fill-rule="evenodd"/><path stroke-width=".5" stroke-miterlimit="3.25" fill="none" stroke="#5f5f5f" d="m162.201 124.931-3.97-12.217"/><path d="m156.679 113.898.167-.163.409-.369.25-.207.258-.192.248-.156.22-.097.213-.044.289-.018.331.001.343.014.592.044.254.025-3.986-6.065.412 7.227z" fill="#4d4d4d" fill-rule="evenodd"/><path stroke-width=".1" stroke-linecap="square" stroke-linejoin="bevel" fill="none" stroke="#4d4d4d" d="m156.679 113.898.167-.163.409-.369.25-.207.258-.192.248-.156.22-.097.213-.044.289-.018.331.001.343.014.592.044.254.025-3.986-6.065.412 7.227z"/><path d="M8.7 352.512a1.503 1.503 0 0 0-1.5-1.5 1.503 1.503 0 0 0-1.5 1.5 1.503 1.503 0 0 0 1.5 1.5 1.503 1.503 0 0 0 1.5-1.5zM354.3 6.912a1.503 1.503 0 0 0-1.5-1.5 1.503 1.503 0 0 0-1.5 1.5 1.503 1.503 0 0 0 1.5 1.5 1.503 1.503 0 0 0 1.5-1.5z" fill="#666" fill-rule="evenodd"/><path stroke-width=".5" stroke-miterlimit="3.25" fill="none" stroke="#666" d="m153.85 128.39-5.832-11.446"/><path d="m146.67 118.356.14-.187.346-.428.215-.243.225-.231.22-.192.202-.131.204-.076.282-.063.328-.051.34-.04.592-.049.254-.015-4.884-5.367 1.536 7.073z" fill="#535353" fill-rule="evenodd"/><path stroke-width=".1" stroke-linecap="square" stroke-linejoin="bevel" fill="none" stroke="#535353" d="m146.67 118.356.14-.187.346-.428.215-.243.225-.231.22-.192.202-.131.204-.076.282-.063.328-.051.34-.04.592-.049.254-.015-4.884-5.367 1.536 7.073z"/><path d="M8.7 352.512a1.503 1.503 0 0 0-1.5-1.5 1.503 1.503 0 0 0-1.5 1.5 1.503 1.503 0 0 0 1.5 1.5 1.503 1.503 0 0 0 1.5-1.5zM354.3 6.912a1.503 1.503 0 0 0-1.5-1.5 1.503 1.503 0 0 0-1.5 1.5 1.503 1.503 0 0 0 1.5 1.5 1.503 1.503 0 0 0 1.5-1.5z" fill="#6c6c6c" fill-rule="evenodd"/><path stroke-width=".5" stroke-miterlimit="3.25" fill="none" stroke="#6c6c6c" d="m146.144 133.113-7.551-10.393"/><path d="m137.482 124.325.109-.206.275-.477.175-.274.185-.263.188-.225.179-.16.189-.107.269-.107.316-.102.33-.092.576-.141.249-.054-5.664-4.538 2.624 6.746z" fill="#595959" fill-rule="evenodd"/><path stroke-width=".1" stroke-linecap="square" stroke-linejoin="bevel" fill="none" stroke="#595959" d="m137.482 124.325.109-.206.275-.477.175-.274.185-.263.188-.225.179-.16.189-.107.269-.107.316-.102.33-.092.576-.141.249-.054-5.664-4.538 2.624 6.746z"/><path d="M8.7 352.512a1.503 1.503 0 0 0-1.5-1.5 1.503 1.503 0 0 0-1.5 1.5 1.503 1.503 0 0 0 1.5 1.5 1.503 1.503 0 0 0 1.5-1.5zM354.3 6.912a1.503 1.503 0 0 0-1.5-1.5 1.503 1.503 0 0 0-1.5 1.5 1.503 1.503 0 0 0 1.5 1.5 1.503 1.503 0 0 0 1.5-1.5z" fill="#737373" fill-rule="evenodd"/><path stroke-width=".5" stroke-miterlimit="3.25" fill="none" stroke="#737373" d="m139.271 138.983-9.084-9.084"/><path d="m129.341 131.659.076-.221.197-.514.129-.298.143-.289.149-.251.152-.187.171-.136.248-.147.296-.15.312-.143.547-.229.238-.093-6.305-3.595 3.647 6.253z" fill="#606060" fill-rule="evenodd"/><path stroke-width=".1" stroke-linecap="square" stroke-linejoin="bevel" fill="none" stroke="#606060" d="m129.341 131.659.076-.221.197-.514.129-.298.143-.289.149-.251.152-.187.171-.136.248-.147.296-.15.312-.143.547-.229.238-.093-6.305-3.595 3.647 6.253z"/><path d="M8.7 352.512a1.503 1.503 0 0 0-1.5-1.5 1.503 1.503 0 0 0-1.5 1.5 1.503 1.503 0 0 0 1.5 1.5 1.503 1.503 0 0 0 1.5-1.5zM354.3 6.912a1.503 1.503 0 0 0-1.5-1.5 1.503 1.503 0 0 0-1.5 1.5 1.503 1.503 0 0 0 1.5 1.5 1.503 1.503 0 0 0 1.5-1.5z" fill="#797979" fill-rule="evenodd"/><path stroke-width=".5" stroke-miterlimit="3.25" fill="none" stroke="#797979" d="m133.401 145.856-10.393-7.551"/><path d="m122.448 140.175.04-.23.114-.539.081-.314.096-.308.108-.271.121-.208.147-.161.223-.184.268-.194.286-.19.504-.313.221-.128-6.79-2.565 4.581 5.605z" fill="#666" fill-rule="evenodd"/><path stroke-width=".1" stroke-linecap="square" stroke-linejoin="bevel" fill="none" stroke="#666" d="m122.448 140.175.04-.23.114-.539.081-.314.096-.308.108-.271.121-.208.147-.161.223-.184.268-.194.286-.19.504-.313.221-.128-6.79-2.565 4.581 5.605z"/><path d="M8.7 352.512a1.503 1.503 0 0 0-1.5-1.5 1.503 1.503 0 0 0-1.5 1.5 1.503 1.503 0 0 0 1.5 1.5 1.503 1.503 0 0 0 1.5-1.5zM354.3 6.912a1.503 1.503 0 0 0-1.5-1.5 1.503 1.503 0 0 0-1.5 1.5 1.503 1.503 0 0 0 1.5 1.5 1.503 1.503 0 0 0 1.5-1.5z" fill="gray" fill-rule="evenodd"/><path stroke-width=".5" stroke-miterlimit="3.25" fill="none" stroke="gray" d="m128.678 153.562-11.446-5.832"/><path d="m116.971 149.665.004-.233.028-.55.031-.324.047-.318.064-.286.087-.224.12-.181.191-.217.235-.234.253-.233.449-.387.197-.161-7.106-1.471 5.4 4.819z" fill="#6c6c6c" fill-rule="evenodd"/><path stroke-width=".1" stroke-linecap="square" stroke-linejoin="bevel" fill="none" stroke="#6c6c6c" d="m116.971 149.665.004-.233.028-.55.031-.324.047-.318.064-.286.087-.224.12-.181.191-.217.235-.234.253-.233.449-.387.197-.161-7.106-1.471 5.4 4.819z"/><path d="M8.7 352.512a1.503 1.503 0 0 0-1.5-1.5 1.503 1.503 0 0 0-1.5 1.5 1.503 1.503 0 0 0 1.5 1.5 1.503 1.503 0 0 0 1.5-1.5zM354.3 6.912a1.503 1.503 0 0 0-1.5-1.5 1.503 1.503 0 0 0-1.5 1.5 1.503 1.503 0 0 0 1.5 1.5 1.503 1.503 0 0 0 1.5-1.5z" fill="#868686" fill-rule="evenodd"/><path stroke-width=".5" stroke-miterlimit="3.25" fill="none" stroke="#868686" d="m125.219 161.913-12.217-3.97"/><path d="m113.047 159.895-.033-.231-.058-.548-.02-.324-.004-.322.019-.292.051-.235.09-.198.155-.244.195-.268.213-.269.383-.453.17-.19-7.249-.342 6.088 3.916z" fill="#737373" fill-rule="evenodd"/><path stroke-width=".1" stroke-linecap="square" stroke-linejoin="bevel" fill="none" stroke="#737373" d="m113.047 159.895-.033-.231-.058-.548-.02-.324-.004-.322.019-.292.051-.235.09-.198.155-.244.195-.268.213-.269.383-.453.17-.19-7.249-.342 6.088 3.916z"/><path d="M8.7 352.512a1.503 1.503 0 0 0-1.5-1.5 1.503 1.503 0 0 0-1.5 1.5 1.503 1.503 0 0 0 1.5 1.5 1.503 1.503 0 0 0 1.5-1.5zM354.3 6.912a1.503 1.503 0 0 0-1.5-1.5 1.503 1.503 0 0 0-1.5 1.5 1.503 1.503 0 0 0 1.5 1.5 1.503 1.503 0 0 0 1.5-1.5z" fill="#8c8c8c" fill-rule="evenodd"/><path stroke-width=".5" stroke-miterlimit="3.25" fill="none" stroke="#8c8c8c" d="m123.109 170.701-12.688-2.009"/><path d="m110.771 170.612-.068-.223-.144-.531-.07-.317-.054-.318-.027-.291.013-.24.058-.21.115-.265.151-.295.168-.299.308-.508.138-.214-7.213.797 6.625 2.914z" fill="#797979" fill-rule="evenodd"/><path stroke-width=".1" stroke-linecap="square" stroke-linejoin="bevel" fill="none" stroke="#797979" d="m110.771 170.612-.068-.223-.144-.531-.07-.317-.054-.318-.027-.291.013-.24.058-.21.115-.265.151-.295.168-.299.308-.508.138-.214-7.213.797 6.625 2.914z"/><path d="M8.7 352.512a1.503 1.503 0 0 0-1.5-1.5 1.503 1.503 0 0 0-1.5 1.5 1.503 1.503 0 0 0 1.5 1.5 1.503 1.503 0 0 0 1.5-1.5zM354.3 6.912a1.503 1.503 0 0 0-1.5-1.5 1.503 1.503 0 0 0-1.5 1.5 1.503 1.503 0 0 0 1.5 1.5 1.503 1.503 0 0 0 1.5-1.5z" fill="#929292" fill-rule="evenodd"/><path stroke-width=".5" stroke-miterlimit="3.25" fill="none" stroke="#929292" d="M122.4 179.712h-12.846"/><path d="m110.2 181.554-.103-.209-.224-.503-.119-.302-.104-.305-.071-.284-.025-.239.025-.216.071-.28.104-.315.119-.322.224-.549.103-.234-7 1.916 7 1.842z" fill="gray" fill-rule="evenodd"/><path stroke-width=".1" stroke-linecap="square" stroke-linejoin="bevel" fill="none" stroke="gray" d="m110.2 181.554-.103-.209-.224-.503-.119-.302-.104-.305-.071-.284-.025-.239.025-.216.071-.28.104-.315.119-.322.224-.549.103-.234-7 1.916 7 1.842z"/></g></g></g></svg>