<svg xmlns="http://www.w3.org/2000/svg" width="480" height="479.232" viewBox="0 0 360 359.424"><clipPath id="a"><path transform="translate(-57 -11)" d="M57 11v359.424h360V11" fill-rule="evenodd"/></clipPath><g clip-path="url(#a)"><path d="M0 0h360v360H0z" fill="#fff" fill-rule="evenodd"/><clipPath id="b"><path transform="translate(-57 -11)" d="M55 9v364h364V9" fill-rule="evenodd"/></clipPath><g clip-path="url(#b)"><clipPath id="c"><path transform="translate(-57 -11)" d="M57 10v361h360V10" fill-rule="evenodd"/></clipPath><g clip-path="url(#c)"><path d="M8.7 352.512a1.503 1.503 0 0 0-1.5-1.5 1.503 1.503 0 0 0-1.5 1.5 1.503 1.503 0 0 0 1.5 1.5 1.503 1.503 0 0 0 1.5-1.5zM354.3 6.912a1.503 1.503 0 0 0-1.5-1.5 1.503 1.503 0 0 0-1.5 1.5 1.503 1.503 0 0 0 1.5 1.5 1.503 1.503 0 0 0 1.5-1.5z" fill-rule="evenodd"/><path stroke-width=".5" stroke-miterlimit="3.25" fill="none" stroke="#000" d="M237.6 179.712h12.846"/><path d="m249.8 177.87.103.209.224.503.119.302.104.305.071.284.025.239-.025.216-.071.28-.104.315-.119.322-.224.549-.103.234 7-1.916-7-1.842z" fill-rule="evenodd"/><path stroke-width=".1" stroke-linecap="square" stroke-linejoin="bevel" fill="none" stroke="#000" d="m249.8 177.87.103.209.224.503.119.302.104.305.071.284.025.239-.025.216-.071.28-.104.315-.119.322-.224.549-.103.234 7-1.916-7-1.842z"/><path d="M8.7 352.512a1.503 1.503 0 0 0-1.5-1.5 1.503 1.503 0 0 0-1.5 1.5 1.503 1.503 0 0 0 1.5 1.5 1.503 1.503 0 0 0 1.5-1.5zM354.3 6.912a1.503 1.503 0 0 0-1.5-1.5 1.503 1.503 0 0 0-1.5 1.5 1.503 1.503 0 0 0 1.5 1.5 1.503 1.503 0 0 0 1.5-1.5z" fill="#050505" fill-rule="evenodd"/><path stroke-width=".5" stroke-miterlimit="3.25" fill="none" stroke="#050505" d="m236.891 170.701 12.688-2.009"/><path d="m248.652 166.973.135.191.3.462.165.28.15.284.115.269.062.233.009.217-.027.288-.052.327-.068.337-.136.577-.065.247 6.614-2.987-7.202-.725z" fill="#060606" fill-rule="evenodd"/><path stroke-width=".1" stroke-linecap="square" stroke-linejoin="bevel" fill="none" stroke="#060606" d="m248.652 166.973.135.191.3.462.165.28.15.284.115.269.062.233.009.217-.027.288-.052.327-.068.337-.136.577-.065.247 6.614-2.987-7.202-.725z"/><path d="M8.7 352.512a1.503 1.503 0 0 0-1.5-1.5 1.503 1.503 0 0 0-1.5 1.5 1.503 1.503 0 0 0 1.5 1.5 1.503 1.503 0 0 0 1.5-1.5zM354.3 6.912a1.503 1.503 0 0 0-1.5-1.5 1.503 1.503 0 0 0-1.5 1.5 1.503 1.503 0 0 0 1.5 1.5 1.503 1.503 0 0 0 1.5-1.5z" fill="#0e0e0e" fill-rule="evenodd"/><path stroke-width=".5" stroke-miterlimit="3.25" fill="none" stroke="#0e0e0e" d="m234.781 161.913 12.217-3.97"/><path d="m245.814 156.391.163.167.369.409.207.25.192.258.156.248.097.22.044.213.018.289-.001.331-.014.343-.044.592-.025.254 6.065-3.986-7.227.412z" fill="#0d0d0d" fill-rule="evenodd"/><path stroke-width=".1" stroke-linecap="square" stroke-linejoin="bevel" fill="none" stroke="#0d0d0d" d="m245.814 156.391.163.167.369.409.207.25.192.258.156.248.097.22.044.213.018.289-.001.331-.014.343-.044.592-.025.254 6.065-3.986-7.227.412z"/><path d="M8.7 352.512a1.503 1.503 0 0 0-1.5-1.5 1.503 1.503 0 0 0-1.5 1.5 1.503 1.503 0 0 0 1.5 1.5 1.503 1.503 0 0 0 1.5-1.5zM354.3 6.912a1.503 1.503 0 0 0-1.5-1.5 1.503 1.503 0 0 0-1.5 1.5 1.503 1.503 0 0 0 1.5 1.5 1.503 1.503 0 0 0 1.5-1.5z" fill="#181818" fill-rule="evenodd"/><path stroke-width=".5" stroke-miterlimit="3.25" fill="none" stroke="#181818" d="m231.322 153.562 11.446-5.832"/><path d="m241.356 146.382.187.14.428.346.243.215.231.225.192.22.131.202.076.204.063.282.051.328.04.34.049.592.015.254 5.367-4.884-7.073 1.536z" fill="#131313" fill-rule="evenodd"/><path stroke-width=".1" stroke-linecap="square" stroke-linejoin="bevel" fill="none" stroke="#131313" d="m241.356 146.382.187.14.428.346.243.215.231.225.192.22.131.202.076.204.063.282.051.328.04.34.049.592.015.254 5.367-4.884-7.073 1.536z"/><path d="M8.7 352.512a1.503 1.503 0 0 0-1.5-1.5 1.503 1.503 0 0 0-1.5 1.5 1.503 1.503 0 0 0 1.5 1.5 1.503 1.503 0 0 0 1.5-1.5zM354.3 6.912a1.503 1.503 0 0 0-1.5-1.5 1.503 1.503 0 0 0-1.5 1.5 1.503 1.503 0 0 0 1.5 1.5 1.503 1.503 0 0 0 1.5-1.5z" fill="#222" fill-rule="evenodd"/><path stroke-width=".5" stroke-miterlimit="3.25" fill="none" stroke="#222" d="m226.599 145.856 10.393-7.551"/><path d="m235.387 137.194.206.109.477.275.274.175.263.185.225.188.16.179.107.189.107.269.102.316.092.33.141.576.054.249 4.538-5.664-6.746 2.624z" fill="#1a1a1a" fill-rule="evenodd"/><path stroke-width=".1" stroke-linecap="square" stroke-linejoin="bevel" fill="none" stroke="#1a1a1a" d="m235.387 137.194.206.109.477.275.274.175.263.185.225.188.16.179.107.189.107.269.102.316.092.33.141.576.054.249 4.538-5.664-6.746 2.624z"/><path d="M8.7 352.512a1.503 1.503 0 0 0-1.5-1.5 1.503 1.503 0 0 0-1.5 1.5 1.503 1.503 0 0 0 1.5 1.5 1.503 1.503 0 0 0 1.5-1.5zM354.3 6.912a1.503 1.503 0 0 0-1.5-1.5 1.503 1.503 0 0 0-1.5 1.5 1.503 1.503 0 0 0 1.5 1.5 1.503 1.503 0 0 0 1.5-1.5z" fill="#2a2a2a" fill-rule="evenodd"/><path stroke-width=".5" stroke-miterlimit="3.25" fill="none" stroke="#2a2a2a" d="m220.729 138.983 9.084-9.084"/><path d="m228.053 129.053.221.076.514.197.298.129.289.143.251.149.187.152.136.171.147.248.15.296.143.312.229.547.093.238 3.595-6.305-6.253 3.647z" fill="#202020" fill-rule="evenodd"/><path stroke-width=".1" stroke-linecap="square" stroke-linejoin="bevel" fill="none" stroke="#202020" d="m228.053 129.053.221.076.514.197.298.129.289.143.251.149.187.152.136.171.147.248.15.296.143.312.229.547.093.238 3.595-6.305-6.253 3.647z"/><path d="M8.7 352.512a1.503 1.503 0 0 0-1.5-1.5 1.503 1.503 0 0 0-1.5 1.5 1.503 1.503 0 0 0 1.5 1.5 1.503 1.503 0 0 0 1.5-1.5zM354.3 6.912a1.503 1.503 0 0 0-1.5-1.5 1.503 1.503 0 0 0-1.5 1.5 1.503 1.503 0 0 0 1.5 1.5 1.503 1.503 0 0 0 1.5-1.5z" fill="#333" fill-rule="evenodd"/><path stroke-width=".5" stroke-miterlimit="3.25" fill="none" stroke="#333" d="m213.856 133.113 7.551-10.393"/><path d="m219.537 122.16.23.04.539.114.314.081.308.096.271.108.208.121.161.147.184.223.194.268.19.286.313.504.128.221 2.565-6.79-5.605 4.581z" fill="#262626" fill-rule="evenodd"/><path stroke-width=".1" stroke-linecap="square" stroke-linejoin="bevel" fill="none" stroke="#262626" d="m219.537 122.16.23.04.539.114.314.081.308.096.271.108.208.121.161.147.184.223.194.268.19.286.313.504.128.221 2.565-6.79-5.605 4.581z"/><path d="M8.7 352.512a1.503 1.503 0 0 0-1.5-1.5 1.503 1.503 0 0 0-1.5 1.5 1.503 1.503 0 0 0 1.5 1.5 1.503 1.503 0 0 0 1.5-1.5zM354.3 6.912a1.503 1.503 0 0 0-1.5-1.5 1.503 1.503 0 0 0-1.5 1.5 1.503 1.503 0 0 0 1.5 1.5 1.503 1.503 0 0 0 1.5-1.5z" fill="#3b3b3b" fill-rule="evenodd"/><path stroke-width=".5" stroke-miterlimit="3.25" fill="none" stroke="#3b3b3b" d="m206.15 128.39 5.832-11.446"/><path d="m210.047 116.683.233.004.55.028.324.031.318.047.286.064.224.087.181.12.217.191.234.235.233.253.387.449.161.197 1.471-7.106-4.819 5.4z" fill="#2d2d2d" fill-rule="evenodd"/><path stroke-width=".1" stroke-linecap="square" stroke-linejoin="bevel" fill="none" stroke="#2d2d2d" d="m210.047 116.683.233.004.55.028.324.031.318.047.286.064.224.087.181.12.217.191.234.235.233.253.387.449.161.197 1.471-7.106-4.819 5.4z"/><path d="M8.7 352.512a1.503 1.503 0 0 0-1.5-1.5 1.503 1.503 0 0 0-1.5 1.5 1.503 1.503 0 0 0 1.5 1.5 1.503 1.503 0 0 0 1.5-1.5zM354.3 6.912a1.503 1.503 0 0 0-1.5-1.5 1.503 1.503 0 0 0-1.5 1.5 1.503 1.503 0 0 0 1.5 1.5 1.503 1.503 0 0 0 1.5-1.5z" fill="#424242" fill-rule="evenodd"/><path stroke-width=".5" stroke-miterlimit="3.25" fill="none" stroke="#424242" d="m197.799 124.931 3.97-12.217"/><path d="m199.817 112.759.231-.033.548-.058.324-.02.322-.004.292.019.235.051.198.09.244.155.268.195.269.213.453.383.19.17.342-7.249-3.916 6.088z" fill="#333" fill-rule="evenodd"/><path stroke-width=".1" stroke-linecap="square" stroke-linejoin="bevel" fill="none" stroke="#333" d="m199.817 112.759.231-.033.548-.058.324-.02.322-.004.292.019.235.051.198.09.244.155.268.195.269.213.453.383.19.17.342-7.249-3.916 6.088z"/><path d="M8.7 352.512a1.503 1.503 0 0 0-1.5-1.5 1.503 1.503 0 0 0-1.5 1.5 1.503 1.503 0 0 0 1.5 1.5 1.503 1.503 0 0 0 1.5-1.5zM354.3 6.912a1.503 1.503 0 0 0-1.5-1.5 1.503 1.503 0 0 0-1.5 1.5 1.503 1.503 0 0 0 1.5 1.5 1.503 1.503 0 0 0 1.5-1.5z" fill="#4a4a4a" fill-rule="evenodd"/><path stroke-width=".5" stroke-miterlimit="3.25" fill="none" stroke="#4a4a4a" d="m189.011 122.821 2.009-12.688"/><path d="m189.1 110.483.223-.068.531-.144.317-.07.318-.054.291-.027.24.013.21.058.265.115.295.151.299.168.508.308.214.138-.797-7.213-2.914 6.625z" fill="#393939" fill-rule="evenodd"/><path stroke-width=".1" stroke-linecap="square" stroke-linejoin="bevel" fill="none" stroke="#393939" d="m189.1 110.483.223-.068.531-.144.317-.07.318-.054.291-.027.24.013.21.058.265.115.295.151.299.168.508.308.214.138-.797-7.213-2.914 6.625z"/><path d="M8.7 352.512a1.503 1.503 0 0 0-1.5-1.5 1.503 1.503 0 0 0-1.5 1.5 1.503 1.503 0 0 0 1.5 1.5 1.503 1.503 0 0 0 1.5-1.5zM354.3 6.912a1.503 1.503 0 0 0-1.5-1.5 1.503 1.503 0 0 0-1.5 1.5 1.503 1.503 0 0 0 1.5 1.5 1.503 1.503 0 0 0 1.5-1.5z" fill="#515151" fill-rule="evenodd"/><path stroke-width=".5" stroke-miterlimit="3.25" fill="none" stroke="#515151" d="M180 122.112v-12.846"/><path d="m178.158 109.912.209-.103.503-.224.302-.119.305-.104.284-.071.239-.025.216.025.28.071.315.104.322.119.549.224.234.103-1.916-7-1.842 7z" fill="#404040" fill-rule="evenodd"/><path stroke-width=".1" stroke-linecap="square" stroke-linejoin="bevel" fill="none" stroke="#404040" d="m178.158 109.912.209-.103.503-.224.302-.119.305-.104.284-.071.239-.025.216.025.28.071.315.104.322.119.549.224.234.103-1.916-7-1.842 7z"/><path d="M8.7 352.512a1.503 1.503 0 0 0-1.5-1.5 1.503 1.503 0 0 0-1.5 1.5 1.503 1.503 0 0 0 1.5 1.5 1.503 1.503 0 0 0 1.5-1.5zM354.3 6.912a1.503 1.503 0 0 0-1.5-1.5 1.503 1.503 0 0 0-1.5 1.5 1.503 1.503 0 0 0 1.5 1.5 1.503 1.503 0 0 0 1.5-1.5z" fill="#585858" fill-rule="evenodd"/><path stroke-width=".5" stroke-miterlimit="3.25" fill="none" stroke="#585858" d="m170.989 122.821-2.009-12.688"/><path d="m167.261 111.06.191-.135.462-.3.28-.165.284-.15.269-.115.233-.062.217-.009.288.027.327.052.337.068.577.136.247.065-2.987-6.614-.725 7.202z" fill="#464646" fill-rule="evenodd"/><path stroke-width=".1" stroke-linecap="square" stroke-linejoin="bevel" fill="none" stroke="#464646" d="m167.261 111.06.191-.135.462-.3.28-.165.284-.15.269-.115.233-.062.217-.009.288.027.327.052.337.068.577.136.247.065-2.987-6.614-.725 7.202z"/><path d="M8.7 352.512a1.503 1.503 0 0 0-1.5-1.5 1.503 1.503 0 0 0-1.5 1.5 1.503 1.503 0 0 0 1.5 1.5 1.503 1.503 0 0 0 1.5-1.5zM354.3 6.912a1.503 1.503 0 0 0-1.5-1.5 1.503 1.503 0 0 0-1.5 1.5 1.503 1.503 0 0 0 1.5 1.5 1.503 1.503 0 0 0 1.5-1.5z" fill="#5f5f5f" fill-rule="evenodd"/><path stroke-width=".5" stroke-miterlimit="3.25" fill="none" stroke="#5f5f5f" d="m162.201 124.931-3.97-12.217"/><path d="m156.679 113.898.167-.163.409-.369.25-.207.258-.192.248-.156.22-.097.213-.044.289-.018.331.001.343.014.592.044.254.025-3.986-6.065.412 7.227z" fill="#4d4d4d" fill-rule="evenodd"/><path stroke-width=".1" stroke-linecap="square" stroke-linejoin="bevel" fill="none" stroke="#4d4d4d" d="m156.679 113.898.167-.163.409-.369.25-.207.258-.192.248-.156.22-.097.213-.044.289-.018.331.001.343.014.592.044.254.025-3.986-6.065.412 7.227z"/><path d="M8.7 352.512a1.503 1.503 0 0 0-1.5-1.5 1.503 1.503 0 0 0-1.5 1.5 1.503 1.503 0 0 0 1.5 1.5 1.503 1.503 0 0 0 1.5-1.5zM354.3 6.912a1.503 1.503 0 0 0-1.5-1.5 1.503 1.503 0 0 0-1.5 1.5 1.503 1.503 0 0 0 1.5 1.5 1.503 1.503 0 0 0 1.5-1.5z" fill="#666" fill-rule="evenodd"/><path stroke-width=".5" stroke-miterlimit="3.25" fill="none" stroke="#666" d="m153.85 128.39-5.832-11.446"/><path d="m146.67 118.356.14-.187.346-.428.215-.243.225-.231.22-.192.202-.131.204-.076.282-.063.328-.051.34-.04.592-.049.254-.015-4.884-5.367 1.536 7.073z" fill="#535353" fill-rule="evenodd"/><path stroke-width=".1" stroke-linecap="square" stroke-linejoin="bevel" fill="none" stroke="#535353" d="m146.67 118.356.14-.187.346-.428.215-.243.225-.231.22-.192.202-.131.204-.076.282-.063.328-.051.34-.04.592-.049.254-.015-4.884-5.367 1.536 7.073z"/><path d="M8.7 352.512a1.503 1.503 0 0 0-1.5-1.5 1.503 1.503 0 0 0-1.5 1.5 1.503 1.503 0 0 0 1.5 1.5 1.503 1.503 0 0 0 1.5-1.5zM354.3 6.912a1.503 1.503 0 0 0-1.5-1.5 1.503 1.503 0 0 0-1.5 1.5 1.503 1.503 0 0 0 1.5 1.5 1.503 1.503 0 0 0 1.5-1.5z" fill="#6c6c6c" fill-rule="evenodd"/><path stroke-width=".5" stroke-miterlimit="3.25" fill="none" stroke="#6c6c6c" d="m146.144 133.113-7.551-10.393"/><path d="m137.482 124.325.109-.206.275-.477.175-.274.185-.263.188-.225.179-.16.189-.107.269-.107.316-.102.33-.092.576-.141.249-.054-5.664-4.538 2.624 6.746z" fill="#595959" fill-rule="evenodd"/><path stroke-width=".1" stroke-linecap="square" stroke-linejoin="bevel" fill="none" stroke="#595959" d="m137.482 124.325.109-.206.275-.477.175-.274.185-.263.188-.225.179-.16.189-.107.269-.107.316-.102.33-.092.576-.141.249-.054-5.664-4.538 2.624 6.746z"/><path d="M8.7 352.512a1.503 1.503 0 0 0-1.5-1.5 1.503 1.503 0 0 0-1.5 1.5 1.503 1.503 0 0 0 1.5 1.5 1.503 1.503 0 0 0 1.5-1.5zM354.3 6.912a1.503 1.503 0 0 0-1.5-1.5 1.503 1.503 0 0 0-1.5 1.5 1.503 1.503 0 0 0 1.5 1.5 1.503 1.503 0 0 0 1.5-1.5z" fill="#737373" fill-rule="evenodd"/><path stroke-width=".5" stroke-miterlimit="3.25" fill="none" stroke="#737373" d="m139.271 138.983-9.084-9.084"/><path d="m129.341 131.659.076-.221.197-.514.129-.298.143-.289.149-.251.152-.187.171-.136.248-.147.296-.15.312-.143.547-.229.238-.093-6.305-3.595 3.647 6.253z" fill="#606060" fill-rule="evenodd"/><path stroke-width=".1" stroke-linecap="square" stroke-linejoin="bevel" fill="none" stroke="#606060" d="m129.341 131.659.076-.221.197-.514.129-.298.143-.289.149-.251.152-.187.171-.136.248-.147.296-.15.312-.143.547-.229.238-.093-6.305-3.595 3.647 6.253z"/><path d="M8.7 352.512a1.503 1.503 0 0 0-1.5-1.5 1.503 1.503 0 0 0-1.5 1.5 1.503 1.503 0 0 0 1.5 1.5 1.503 1.503 0 0 0 1.5-1.5zM354.3 6.912a1.503 1.503 0 0 0-1.5-1.5 1.503 1.503 0 0 0-1.5 1.5 1.503 1.503 0 0 0 1.5 1.5 1.503 1.503 0 0 0 1.5-1.5z" fill="#797979" fill-rule="evenodd"/><path stroke-width=".5" stroke-miterlimit="3.25" fill="none" stroke="#797979" d="m133.401 145.856-10.393-7.551"/><path d="m122.448 140.175.04-.23.114-.539.081-.314.096-.308.108-.271.121-.208.147-.161.223-.184.268-.194.286-.19.504-.313.221-.128-6.79-2.565 4.581 5.605z" fill="#666" fill-rule="evenodd"/><path stroke-width=".1" stroke-linecap="square" stroke-linejoin="bevel" fill="none" stroke="#666" d="m122.448 140.175.04-.23.114-.539.081-.314.096-.308.108-.271.121-.208.147-.161.223-.184.268-.194.286-.19.504-.313.221-.128-6.79-2.565 4.581 5.605z"/><path d="M8.7 352.512a1.503 1.503 0 0 0-1.5-1.5 1.503 1.503 0 0 0-1.5 1.5 1.503 1.503 0 0 0 1.5 1.5 1.503 1.503 0 0 0 1.5-1.5zM354.3 6.912a1.503 1.503 0 0 0-1.5-1.5 1.503 1.503 0 0 0-1.5 1.5 1.503 1.503 0 0 0 1.5 1.5 1.503 1.503 0 0 0 1.5-1.5z" fill="gray" fill-rule="evenodd"/><path stroke-width=".5" stroke-miterlimit="3.25" fill="none" stroke="gray" d="m128.678 153.562-11.446-5.832"/><path d="m116.971 149.665.004-.233.028-.55.031-.324.047-.318.064-.286.087-.224.12-.181.191-.217.235-.234.253-.233.449-.387.197-.161-7.106-1.471 5.4 4.819z" fill="#6c6c6c" fill-rule="evenodd"/><path stroke-width=".1" stroke-linecap="square" stroke-linejoin="bevel" fill="none" stroke="#6c6c6c" d="m116.971 149.665.004-.233.028-.55.031-.324.047-.318.064-.286.087-.224.12-.181.191-.217.235-.234.253-.233.449-.387.197-.161-7.106-1.471 5.4 4.819z"/><path d="M8.7 352.512a1.503 1.503 0 0 0-1.5-1.5 1.503 1.503 0 0 0-1.5 1.5 1.503 1.503 0 0 0 1.5 1.5 1.503 1.503 0 0 0 1.5-1.5zM354.3 6.912a1.503 1.503 0 0 0-1.5-1.5 1.503 1.503 0 0 0-1.5 1.5 1.503 1.503 0 0 0 1.5 1.5 1.503 1.503 0 0 0 1.5-1.5z" fill="#868686" fill-rule="evenodd"/><path stroke-width=".5" stroke-miterlimit="3.25" fill="none" stroke="#868686" d="m125.219 161.913-12.217-3.97"/><path d="m113.047 159.895-.033-.231-.058-.548-.02-.324-.004-.322.019-.292.051-.235.09-.198.155-.244.195-.268.213-.269.383-.453.17-.19-7.249-.342 6.088 3.916z" fill="#737373" fill-rule="evenodd"/><path stroke-width=".1" stroke-linecap="square" stroke-linejoin="bevel" fill="none" stroke="#737373" d="m113.047 159.895-.033-.231-.058-.548-.02-.324-.004-.322.019-.292.051-.235.09-.198.155-.244.195-.268.213-.269.383-.453.17-.19-7.249-.342 6.088 3.916z"/><path d="M8.7 352.512a1.503 1.503 0 0 0-1.5-1.5 1.503 1.503 0 0 0-1.5 1.5 1.503 1.503 0 0 0 1.5 1.5 1.503 1.503 0 0 0 1.5-1.5zM354.3 6.912a1.503 1.503 0 0 0-1.5-1.5 1.503 1.503 0 0 0-1.5 1.5 1.503 1.503 0 0 0 1.5 1.5 1.503 1.503 0 0 0 1.5-1.5z" fill="#8c8c8c" fill-rule="evenodd"/><path stroke-width=".5" stroke-miterlimit="3.25" fill="none" stroke="#8c8c8c" d="m123.109 170.701-12.688-2.009"/><path d="m110.771 170.612-.068-.223-.144-.531-.07-.317-.054-.318-.027-.291.013-.24.058-.21.115-.265.151-.295.168-.299.308-.508.138-.214-7.213.797 6.625 2.914z" fill="#797979" fill-rule="evenodd"/><path stroke-width=".1" stroke-linecap="square" stroke-linejoin="bevel" fill="none" stroke="#797979" d="m110.771 170.612-.068-.223-.144-.531-.07-.317-.054-.318-.027-.291.013-.24.058-.21.115-.265.151-.295.168-.299.308-.508.138-.214-7.213.797 6.625 2.914z"/><path d="M8.7 352.512a1.503 1.503 0 0 0-1.5-1.5 1.503 1.503 0 0 0-1.5 1.5 1.503 1.503 0 0 0 1.5 1.5 1.503 1.503 0 0 0 1.5-1.5zM354.3 6.912a1.503 1.503 0 0 0-1.5-1.5 1.503 1.503 0 0 0-1.5 1.5 1.503 1.503 0 0 0 1.5 1.5 1.503 1.503 0 0 0 1.5-1.5z" fill="#929292" fill-rule="evenodd"/><path stroke-width=".5" stroke-miterlimit="3.25" fill="none" stroke="#929292" d="M122.4 179.712h-12.846"/><path d="m110.2 181.554-.103-.209-.224-.503-.119-.302-.104-.305-.071-.284-.025-.239.025-.216.071-.28.104-.315.119-.322.224-.549.103-.234-7 1.916 7 1.842z" fill="gray" fill-rule="evenodd"/><path stroke-width=".1" stroke-linecap="square" stroke-linejoin="bevel" fill="none" stroke="gray" d="m110.2 181.554-.103-.209-.224-.503-.119-.302-.104-.305-.071-.284-.025-.239.025-.216.071-.28.104-.315.119-.322.224-.549.103-.234-7 1.916 7 1.842z"/><path stroke-width=".5" stroke-miterlimit="3.25" fill="none" stroke="#000" d="m237.6 179.712 55.369-147.651"/><path d="m291.017 32.019.233-.022.549-.034.325-.005.322.01.29.032.233.061.194.099.237.166.259.207.259.225.435.403.183.178.664-7.227-4.183 5.907z" fill-rule="evenodd"/><path stroke-width=".1" stroke-linecap="square" stroke-linejoin="bevel" fill="none" stroke="#000" d="m291.017 32.019.233-.022.549-.034.325-.005.322.01.29.032.233.061.194.099.237.166.259.207.259.225.435.403.183.178.664-7.227-4.183 5.907z"/><path stroke-width=".5" stroke-miterlimit="3.25" fill="none" stroke="#050505" d="m236.891 170.701 54.62-142.771"/><path d="m289.56 27.876.232-.021.55-.03.325-.004.322.013.29.034.232.062.194.101.236.167.257.209.258.226.432.406.182.179.712-7.222-4.222 5.88z" fill="#060606" fill-rule="evenodd"/><path stroke-width=".1" stroke-linecap="square" stroke-linejoin="bevel" fill="none" stroke="#060606" d="m289.56 27.876.232-.021.55-.03.325-.004.322.013.29.034.232.062.194.101.236.167.257.209.258.226.432.406.182.179.712-7.222-4.222 5.88z"/><path stroke-width=".5" stroke-miterlimit="3.25" fill="none" stroke="#0e0e0e" d="m234.781 161.913 52.468-134.232"/><path d="m285.298 27.612.232-.019.55-.026.325-.001.321.015.291.036.232.064.192.102.235.169.256.211.256.228.429.409.181.181.764-7.218-4.264 5.849z" fill="#0d0d0d" fill-rule="evenodd"/><path stroke-width=".1" stroke-linecap="square" stroke-linejoin="bevel" fill="none" stroke="#0d0d0d" d="m285.298 27.612.232-.019.55-.026.325-.001.321.015.291.036.232.064.192.102.235.169.256.211.256.228.429.409.181.181.764-7.218-4.264 5.849z"/><path stroke-width=".5" stroke-miterlimit="3.25" fill="none" stroke="#181818" d="m231.322 153.562 48.96-122.243"/><path d="m278.331 31.233.233-.017.55-.021.325.001.321.018.29.039.232.066.191.103.234.171.254.213.254.23.426.413.179.182.824-7.211-4.313 5.813z" fill="#131313" fill-rule="evenodd"/><path stroke-width=".1" stroke-linecap="square" stroke-linejoin="bevel" fill="none" stroke="#131313" d="m278.331 31.233.233-.017.55-.021.325.001.321.018.29.039.232.066.191.103.234.171.254.213.254.23.426.413.179.182.824-7.211-4.313 5.813z"/><path stroke-width=".5" stroke-miterlimit="3.25" fill="none" stroke="#222" d="M226.599 145.856 270.776 38.75"/><path d="m268.827 38.645.233-.015.55-.016.325.005.321.021.29.042.23.068.191.105.231.173.252.216.252.233.422.417.177.184.898-7.202-4.372 5.769z" fill="#1a1a1a" fill-rule="evenodd"/><path stroke-width=".1" stroke-linecap="square" stroke-linejoin="bevel" fill="none" stroke="#1a1a1a" d="m268.827 38.645.233-.015.55-.016.325.005.321.021.29.042.23.068.191.105.231.173.252.216.252.233.422.417.177.184.898-7.202-4.372 5.769z"/><path stroke-width=".5" stroke-miterlimit="3.25" fill="none" stroke="#2a2a2a" d="m220.729 138.983 38.227-89.195"/><path d="m257.008 49.656.233-.012.551-.008.324.009.321.025.289.046.23.072.189.108.229.176.249.219.249.236.416.423.174.186.997-7.189-4.451 5.709z" fill="#202020" fill-rule="evenodd"/><path stroke-width=".1" stroke-linecap="square" stroke-linejoin="bevel" fill="none" stroke="#202020" d="m257.008 49.656.233-.012.551-.008.324.009.321.025.289.046.23.072.189.108.229.176.249.219.249.236.416.423.174.186.997-7.189-4.451 5.709z"/><path stroke-width=".5" stroke-miterlimit="3.25" fill="none" stroke="#333" d="m213.856 133.113 31.235-68.963"/><path d="m243.147 63.978.233-.007.551.003.324.016.32.032.288.052.228.076.187.112.226.18.244.224.244.242.407.431.171.19 1.143-7.167-4.566 5.616z" fill="#262626" fill-rule="evenodd"/><path stroke-width=".1" stroke-linecap="square" stroke-linejoin="bevel" fill="none" stroke="#262626" d="m243.147 63.978.233-.007.551.003.324.016.32.032.288.052.228.076.187.112.226.18.244.224.244.242.407.431.171.19 1.143-7.167-4.566 5.616z"/><path stroke-width=".5" stroke-miterlimit="3.25" fill="none" stroke="#3b3b3b" d="m206.15 128.39 23.322-46.935"/><path d="m227.535 81.213.233.002.55.022.324.028.319.043.286.062.225.085.183.118.219.189.236.232.235.25.392.446.163.196 1.4-7.122-4.765 5.449z" fill="#2d2d2d" fill-rule="evenodd"/><path stroke-width=".1" stroke-linecap="square" stroke-linejoin="bevel" fill="none" stroke="#2d2d2d" d="m227.535 81.213.233.002.55.022.324.028.319.043.286.062.225.085.183.118.219.189.236.232.235.25.392.446.163.196 1.4-7.122-4.765 5.449z"/><path stroke-width=".5" stroke-miterlimit="3.25" fill="none" stroke="#424242" d="m197.799 124.931 14.493-23.779"/><path d="m210.383 100.745.232.021.546.07.32.056.314.07.28.087.217.103.172.134.202.207.215.252.213.269.352.478.146.209 2.007-6.975-5.216 5.019z" fill="#333" fill-rule="evenodd"/><path stroke-width=".1" stroke-linecap="square" stroke-linejoin="bevel" fill="none" stroke="#333" d="m210.383 100.745.232.021.546.07.32.056.314.07.28.087.217.103.172.134.202.207.215.252.213.269.352.478.146.209 2.007-6.975-5.216 5.019z"/><path stroke-width=".5" stroke-miterlimit="3.25" fill="none" stroke="#4a4a4a" d="m189.011 122.821 3.471-1.951"/><path d="m191.017 119.58.192.133.442.328.252.205.239.215.202.212.138.197.085.2.075.28.064.325.054.339.073.588.025.254 5.163-5.1-7.004 1.824z" fill="#393939" fill-rule="evenodd"/><path stroke-width=".1" stroke-linecap="square" stroke-linejoin="bevel" fill="none" stroke="#393939" d="m191.017 119.58.192.133.442.328.252.205.239.215.202.212.138.197.085.2.075.28.064.325.054.339.073.588.025.254 5.163-5.1-7.004 1.824z"/><path stroke-width=".5" stroke-miterlimit="3.25" fill="none" stroke="#515151" d="M180 122.112v12.846"/><path d="m181.842 134.312-.209.103-.503.224-.302.119-.305.104-.284.071-.239.025-.216-.025-.28-.071-.315-.104-.322-.119-.549-.224-.234-.103 1.916 7 1.842-7z" fill="#404040" fill-rule="evenodd"/><path stroke-width=".1" stroke-linecap="square" stroke-linejoin="bevel" fill="none" stroke="#404040" d="m181.842 134.312-.209.103-.503.224-.302.119-.305.104-.284.071-.239.025-.216-.025-.28-.071-.315-.104-.322-.119-.549-.224-.234-.103 1.916 7 1.842-7z"/><path stroke-width=".5" stroke-miterlimit="3.25" fill="none" stroke="#585858" d="m170.989 122.821-7.707 36.773"/><path d="m165.218 159.34-.226.057-.539.117-.32.055-.319.038-.293.012-.239-.025-.207-.068-.259-.128-.287-.166-.29-.182-.492-.333-.207-.148.439 7.244 3.239-6.473z" fill="#464646" fill-rule="evenodd"/><path stroke-width=".1" stroke-linecap="square" stroke-linejoin="bevel" fill="none" stroke="#464646" d="m165.218 159.34-.226.057-.539.117-.32.055-.319.038-.293.012-.239-.025-.207-.068-.259-.128-.287-.166-.29-.182-.492-.333-.207-.148.439 7.244 3.239-6.473z"/><path stroke-width=".5" stroke-miterlimit="3.25" fill="none" stroke="#5f5f5f" d="m162.201 124.931-16.139 59.592"/><path d="m148.009 184.381-.229.045-.544.085-.323.036-.321.02-.293-.005-.237-.039-.202-.08-.252-.142-.277-.182-.279-.2-.471-.36-.199-.16.019 7.257 3.608-6.275z" fill="#4d4d4d" fill-rule="evenodd"/><path stroke-width=".1" stroke-linecap="square" stroke-linejoin="bevel" fill="none" stroke="#4d4d4d" d="m148.009 184.381-.229.045-.544.085-.323.036-.321.02-.293-.005-.237-.039-.202-.08-.252-.142-.277-.182-.279-.2-.471-.36-.199-.16.019 7.257 3.608-6.275z"/><path stroke-width=".5" stroke-miterlimit="3.25" fill="none" stroke="#666" d="m153.85 128.39-24.318 80.756"/><path d="m131.483 209.059-.231.038-.546.07-.324.027-.321.011-.293-.013-.236-.046-.2-.086-.247-.149-.272-.19-.274-.207-.461-.373-.194-.166-.184 7.255 3.783-6.171z" fill="#535353" fill-rule="evenodd"/><path stroke-width=".1" stroke-linecap="square" stroke-linejoin="bevel" fill="none" stroke="#535353" d="m131.483 209.059-.231.038-.546.07-.324.027-.321.011-.293-.013-.236-.046-.2-.086-.247-.149-.272-.19-.274-.207-.461-.373-.194-.166-.184 7.255 3.783-6.171z"/><path stroke-width=".5" stroke-miterlimit="3.25" fill="none" stroke="#6c6c6c" d="m146.144 133.113-31.921 99.765"/><path d="m116.175 232.824-.231.034-.547.06-.324.022-.322.005-.292-.018-.236-.049-.198-.09-.245-.153-.269-.195-.27-.211-.454-.381-.191-.169-.309 7.251 3.888-6.106z" fill="#595959" fill-rule="evenodd"/><path stroke-width=".1" stroke-linecap="square" stroke-linejoin="bevel" fill="none" stroke="#595959" d="m116.175 232.824-.231.034-.547.06-.324.022-.322.005-.292-.018-.236-.049-.198-.09-.245-.153-.269-.195-.27-.211-.454-.381-.191-.169-.309 7.251 3.888-6.106z"/><path stroke-width=".5" stroke-miterlimit="3.25" fill="none" stroke="#737373" d="m139.271 138.983-38.72 116.16"/><path d="m102.502 255.112-.231.032-.548.054-.324.017-.322.002-.292-.022-.234-.052-.198-.092-.243-.157-.266-.197-.267-.215-.45-.387-.19-.171-.396 7.247 3.961-6.059z" fill="#606060" fill-rule="evenodd"/><path stroke-width=".1" stroke-linecap="square" stroke-linejoin="bevel" fill="none" stroke="#606060" d="m102.502 255.112-.231.032-.548.054-.324.017-.322.002-.292-.022-.234-.052-.198-.092-.243-.157-.266-.197-.267-.215-.45-.387-.19-.171-.396 7.247 3.961-6.059z"/><path stroke-width=".5" stroke-miterlimit="3.25" fill="none" stroke="#797979" d="M133.401 145.856 88.867 275.397"/><path d="m90.819 275.385-.231.029-.549.049-.324.015-.322-.002-.292-.024-.234-.055-.197-.093-.241-.159-.265-.2-.265-.218-.446-.391-.188-.173-.464 7.243 4.018-6.021z" fill="#666" fill-rule="evenodd"/><path stroke-width=".1" stroke-linecap="square" stroke-linejoin="bevel" fill="none" stroke="#666" d="m90.819 275.385-.231.029-.549.049-.324.015-.322-.002-.292-.024-.234-.055-.197-.093-.241-.159-.265-.2-.265-.218-.446-.391-.188-.173-.464 7.243 4.018-6.021z"/><path stroke-width=".5" stroke-miterlimit="3.25" fill="none" stroke="gray" d="M128.678 153.562 79.469 293.145"/><path d="m81.421 293.148-.232.027-.549.045-.324.012-.322-.004-.292-.027-.233-.056-.196-.095-.24-.161-.263-.202-.264-.22-.443-.394-.186-.174-.521 7.238 4.065-5.989z" fill="#6c6c6c" fill-rule="evenodd"/><path stroke-width=".1" stroke-linecap="square" stroke-linejoin="bevel" fill="none" stroke="#6c6c6c" d="m81.421 293.148-.232.027-.549.045-.324.012-.322-.004-.292-.027-.233-.056-.196-.095-.24-.161-.263-.202-.264-.22-.443-.394-.186-.174-.521 7.238 4.065-5.989z"/><path stroke-width=".5" stroke-miterlimit="3.25" fill="none" stroke="#868686" d="M125.219 161.913 72.592 307.95"/><path d="m74.544 307.967-.231.026-.549.04-.325.01-.322-.006-.291-.029-.234-.058-.195-.096-.239-.163-.261-.203-.262-.222-.441-.397-.185-.176-.571 7.235 4.106-5.961z" fill="#737373" fill-rule="evenodd"/><path stroke-width=".1" stroke-linecap="square" stroke-linejoin="bevel" fill="none" stroke="#737373" d="m74.544 307.967-.231.026-.549.04-.325.01-.322-.006-.291-.029-.234-.058-.195-.096-.239-.163-.261-.203-.262-.222-.441-.397-.185-.176-.571 7.235 4.106-5.961z"/><path stroke-width=".5" stroke-miterlimit="3.25" fill="none" stroke="#8c8c8c" d="M123.109 170.701 68.411 319.45"/><path d="m70.363 319.48-.232.024-.549.037-.325.008-.322-.009-.291-.03-.233-.06-.194-.097-.238-.164-.26-.206-.261-.223-.438-.4-.184-.177-.618 7.231 4.145-5.934z" fill="#797979" fill-rule="evenodd"/><path stroke-width=".1" stroke-linecap="square" stroke-linejoin="bevel" fill="none" stroke="#797979" d="m70.363 319.48-.232.024-.549.037-.325.008-.322-.009-.291-.03-.233-.06-.194-.097-.238-.164-.26-.206-.261-.223-.438-.4-.184-.177-.618 7.231 4.145-5.934z"/><path stroke-width=".5" stroke-miterlimit="3.25" fill="none" stroke="#929292" d="M122.4 179.712 67.031 327.363"/><path d="m68.983 327.405-.233.022-.549.034-.325.005-.322-.01-.29-.032-.233-.061-.194-.099-.237-.166-.259-.207-.259-.225-.435-.403-.183-.178-.664 7.227 4.183-5.907z" fill="gray" fill-rule="evenodd"/><path stroke-width=".1" stroke-linecap="square" stroke-linejoin="bevel" fill="none" stroke="gray" d="m68.983 327.405-.233.022-.549.034-.325.005-.322-.01-.29-.032-.233-.061-.194-.099-.237-.166-.259-.207-.259-.225-.435-.403-.183-.178-.664 7.227 4.183-5.907z"/></g></g></g></svg>