<svg xmlns="http://www.w3.org/2000/svg" xmlns:xlink="http://www.w3.org/1999/xlink" width="211pt" height="149pt" viewBox="0 0 211 149"><clipPath id="a"><path transform="translate(-66 -5)" d="M66 5v149h211V5" fill-rule="evenodd"/></clipPath><g clip-path="url(#a)"><clipPath id="b"><path transform="translate(-66 -5)" d="M64 3v153h215V3" fill-rule="evenodd"/></clipPath><g clip-path="url(#b)"><clipPath id="c"><path transform="translate(-66 -5)" d="M69 11v128h207V11" fill-rule="evenodd"/></clipPath><g clip-path="url(#c)"><path stroke-width="2" stroke-linecap="square" stroke-miterlimit="3.25" fill="none" stroke="#3f3d99" d="M8 133.328h.303l.061-.001h.607l.06-.001h.303l.122-.001h.121l.121-.001h.243l.061-.001h.06l.122-.001.242-.001h.122l.121-.001.243-.002h.121l.121-.001.243-.002.485-.004h.066l.066-.001.131-.001.263-.002.526-.006.066-.001h.066l.131-.002.263-.003.526-.006.066-.001.066-.001.132-.002.263-.003.526-.008 1.052-.017.061-.001.062-.002.122-.002.246-.004.491-.01.983-.02.061-.001.062-.002.122-.003.246-.005.491-.012.983-.024.06-.002.06-.001.12-.004.241-.006.482-.013.963-.028.06-.002.06-.002.121-.004.241-.007.481-.016.963-.032.066-.002.065-.002.131-.005.261-.009.522-.019 1.045-.039 2.09-.087.061-.002.06-.003.122-.005.244-.011.488-.022.975-.046 1.95-.097 4.227-.239 4.15-.272 3.87-.288 4.198-.349 3.918-.36 3.842-.386 4.168-.454 3.889-.458 4.216-.534 4.138-.561 3.86-.557 4.186-.641 3.907-.632 4.234-.722 4.157-.748 3.878-.73 4.204-.83 3.926-.809 3.848-.825 4.175-.932 3.896-.904 4.223-1.016 4.145-1.036 3.867-1 4.193-1.121 3.914-1.08 3.837-1.092 4.164-1.221 3.885-1.172 4.211-1.309 3.933-1.256 3.855-1.265 4.182-1.408 3.903-1.348 4.229-1.499 4.153-1.509 3.873-1.441 4.201-1.6 3.921-1.528 3.844-1.53 4.17-1.697 3.892-1.617.068-.028.068-.029.136-.057.271-.114.543-.229 1.086-.46.068-.029.068-.028.136-.058.271-.116.543-.231.068-.029.068-.029.136-.058.272-.116.067-.029.068-.029.136-.058.068-.03.068-.029.068-.029.068-.029"/></g><path stroke-width=".2" stroke-miterlimit="3.25" fill="none" stroke="#000" d="M27.778 133.328v-2.442"/><clipPath id="d"><path transform="translate(-66 -5)" d="M86 140v15h16v-15" fill-rule="evenodd"/></clipPath><g clip-path="url(#d)"><clipPath id="e"><path transform="translate(21.278 136.328)" d="M-2.278-2.328v17h18v-17" fill-rule="evenodd"/></clipPath><g clip-path="url(#e)"><symbol id="f"><path d="M0 .339c0 .075.011.14.034.195a.273.273 0 0 0 .091.122c.03.02.06.031.09.031C.268.688.313.662.354.61A.41.41 0 0 0 .428.35.514.514 0 0 0 .395.152.26.26 0 0 0 .31.036.173.173 0 0 0 .21 0C.149 0 .096.037.054.112A.455.455 0 0 0 0 .339M.096.327c0-.091.01-.166.033-.223C.148.055.176.03.212.03.23.03.248.039.267.054a.152.152 0 0 1 .043.08.965.965 0 0 1 .023.237.648.648 0 0 1-.024.189.168.168 0 0 1-.045.08.077.077 0 0 1-.107-.014.249.249 0 0 1-.049-.128A1.185 1.185 0 0 1 .096.327z"/></symbol><symbol id="g"><path d="M.054.108A.052.052 0 0 0 .093.092.052.052 0 0 0 .108.054.053.053 0 0 0 .092.016.052.052 0 0 0 .054 0 .053.053 0 0 0 0 .054C0 .07.005.082.016.093c.01.01.023.015.038.015z"/></symbol><symbol id="h"><path d="m0 .597.161.079h.016v-.56C.177.08.18.057.182.048a.037.037 0 0 1 .02-.02A.164.164 0 0 1 .26.017V0H.01v.018c.032 0 .052.003.061.008.01.005.016.011.02.019a.262.262 0 0 1 .005.072v.357c0 .048-.002.08-.005.093A.038.038 0 0 1 .079.59a.032.032 0 0 1-.021.007.13.13 0 0 1-.05-.015L0 .597z"/></symbol><use xlink:href="#f" transform="matrix(10 0 0 -10 21.64 146.445)"/><use xlink:href="#g" transform="matrix(10 0 0 -10 27.026 146.465)"/><use xlink:href="#h" transform="matrix(10 0 0 -10 30.01 146.328)"/></g></g><path stroke-width=".2" stroke-miterlimit="3.25" fill="none" stroke="#000" d="M47.556 133.328v-2.442"/><clipPath id="i"><path transform="translate(-66 -5)" d="M106 140v15h16v-15" fill-rule="evenodd"/></clipPath><g clip-path="url(#i)"><clipPath id="j"><path transform="translate(41.056 136.328)" d="M-2.056-2.328v17h18v-17" fill-rule="evenodd"/></clipPath><g clip-path="url(#j)"><symbol id="k"><path d="M.437.127.391 0H0v.018c.115.105.196.19.243.257.047.066.07.127.07.182a.144.144 0 0 1-.039.104.123.123 0 0 1-.092.04.144.144 0 0 1-.088-.029A.165.165 0 0 1 .037.49H.02c.008.06.029.106.063.138a.176.176 0 0 0 .126.049.186.186 0 0 0 .134-.052.163.163 0 0 0 .054-.122.236.236 0 0 0-.023-.1.663.663 0 0 0-.117-.168 3.477 3.477 0 0 0-.152-.16h.173c.035 0 .06.001.074.004a.099.099 0 0 1 .038.015c.012.008.021.02.03.034h.018z"/></symbol><use xlink:href="#f" transform="matrix(10 0 0 -10 41.417 146.445)"/><use xlink:href="#g" transform="matrix(10 0 0 -10 46.804 146.465)"/><use xlink:href="#k" transform="matrix(10 0 0 -10 48.83 146.328)"/></g></g><path stroke-width=".2" stroke-miterlimit="3.25" fill="none" stroke="#000" d="M67.334 133.328v-2.442"/><clipPath id="l"><path transform="translate(-66 -5)" d="M125 140v15h16v-15" fill-rule="evenodd"/></clipPath><g clip-path="url(#l)"><clipPath id="m"><path transform="translate(60.834 136.328)" d="M-2.834-2.328v17h18v-17" fill-rule="evenodd"/></clipPath><g clip-path="url(#m)"><symbol id="n"><path d="M.01.548A.268.268 0 0 0 .082.65a.162.162 0 0 0 .107.036.149.149 0 0 0 .123-.051.127.127 0 0 0 .032-.083c0-.048-.03-.098-.091-.15A.197.197 0 0 0 .345.336.177.177 0 0 0 .376.231.22.22 0 0 0 .322.082C.274.027.205 0 .115 0 .071 0 .04.006.024.017.008.027 0 .04 0 .052c0 .01.004.018.011.025a.04.04 0 0 0 .028.01.084.084 0 0 0 .025-.003.285.285 0 0 0 .038-.018.245.245 0 0 1 .04-.018.135.135 0 0 1 .039-.006c.033 0 .062.013.086.04a.127.127 0 0 1 .037.09A.176.176 0 0 1 .26.29a.199.199 0 0 1-.057.035.184.184 0 0 1-.075.016H.111v.015a.2.2 0 0 1 .077.028.147.147 0 0 1 .057.055.145.145 0 0 1 .018.07.108.108 0 0 1-.11.113C.103.621.06.594.026.54L.01.548z"/></symbol><use xlink:href="#f" transform="matrix(10 0 0 -10 61.195 146.445)"/><use xlink:href="#g" transform="matrix(10 0 0 -10 66.582 146.465)"/><use xlink:href="#n" transform="matrix(10 0 0 -10 68.8 146.445)"/></g></g><path stroke-width=".2" stroke-miterlimit="3.25" fill="none" stroke="#000" d="M87.112 133.328v-2.442"/><clipPath id="o"><path transform="translate(-66 -5)" d="M145 140v15h16v-15" fill-rule="evenodd"/></clipPath><g clip-path="url(#o)"><clipPath id="p"><path transform="translate(80.612 136.328)" d="M-2.612-2.328v17h18v-17" fill-rule="evenodd"/></clipPath><g clip-path="url(#p)"><symbol id="q"><path d="M.45.244v-.07H.36V0H.28v.175H0v.062l.307.439h.054V.244H.45m-.17 0v.329L.048.244H.28z"/></symbol><use xlink:href="#f" transform="matrix(10 0 0 -10 80.973 146.445)"/><use xlink:href="#g" transform="matrix(10 0 0 -10 86.36 146.465)"/><use xlink:href="#q" transform="matrix(10 0 0 -10 88.328 146.328)"/></g></g><path stroke-width=".2" stroke-miterlimit="3.25" fill="none" stroke="#000" d="M106.89 133.328v-2.442"/><clipPath id="r"><path transform="translate(-66 -5)" d="M165 140v15h16v-15" fill-rule="evenodd"/></clipPath><g clip-path="url(#r)"><clipPath id="s"><path transform="translate(100.39 136.328)" d="M-2.39-2.328v17h18v-17" fill-rule="evenodd"/></clipPath><g clip-path="url(#s)"><symbol id="t"><path d="M.386.674.348.59h-.2L.106.502A.349.349 0 0 0 .311.406.216.216 0 0 0 .375.25.22.22 0 0 0 .354.153.257.257 0 0 0 .229.027.264.264 0 0 0 .114 0C.074 0 .045.007.027.02.009.034 0 .049 0 .065c0 .01.004.017.011.024a.04.04 0 0 0 .029.01.056.056 0 0 0 .022-.003.198.198 0 0 0 .032-.02A.13.13 0 0 1 .168.05c.039 0 .072.015.1.043A.144.144 0 0 1 .313.2c0 .04-.013.077-.039.112a.247.247 0 0 1-.106.08.432.432 0 0 1-.145.026l.127.257h.237z"/></symbol><use xlink:href="#f" transform="matrix(10 0 0 -10 100.751 146.445)"/><use xlink:href="#g" transform="matrix(10 0 0 -10 106.138 146.465)"/><use xlink:href="#t" transform="matrix(10 0 0 -10 108.429 146.445)"/></g></g><path stroke-width=".2" stroke-miterlimit="3.25" fill="none" stroke="#000" d="M126.668 133.328v-2.442"/><clipPath id="u"><path transform="translate(-66 -5)" d="M185 140v15h16v-15" fill-rule="evenodd"/></clipPath><g clip-path="url(#u)"><clipPath id="v"><path transform="translate(120.168 136.328)" d="M-2.168-2.328v17h18v-17" fill-rule="evenodd"/></clipPath><g clip-path="url(#v)"><symbol id="w"><path d="M.405.688V.668A.32.32 0 0 1 .3.644.295.295 0 0 1 .22.585.38.38 0 0 1 .152.497.53.53 0 0 1 .11.38.248.248 0 0 0 .25.43.154.154 0 0 0 .369.375a.2.2 0 0 0 .05-.14.25.25 0 0 0-.05-.152A.189.189 0 0 0 .207 0a.161.161 0 0 0-.115.045A.297.297 0 0 0 0 .27a.438.438 0 0 0 .264.395c.04.014.078.021.113.021h.028M.102.346a.843.843 0 0 1-.01-.107C.093.208.099.174.11.137A.201.201 0 0 1 .162.05a.086.086 0 0 1 .06-.023c.028 0 .054.014.076.04a.173.173 0 0 1 .034.115.298.298 0 0 1-.034.144C.276.366.245.387.204.387A.118.118 0 0 1 .164.38.395.395 0 0 1 .102.346z"/></symbol><use xlink:href="#f" transform="matrix(10 0 0 -10 120.53 146.445)"/><use xlink:href="#g" transform="matrix(10 0 0 -10 125.916 146.465)"/><use xlink:href="#w" transform="matrix(10 0 0 -10 128.158 146.445)"/></g></g><path stroke-width=".2" stroke-miterlimit="3.25" fill="none" stroke="#000" d="M146.446 133.328v-2.442"/><clipPath id="x"><path transform="translate(-66 -5)" d="M204 140v15h16v-15" fill-rule="evenodd"/></clipPath><g clip-path="url(#x)"><clipPath id="y"><path transform="translate(139.946 136.328)" d="M-2.946-2.328v17h18v-17" fill-rule="evenodd"/></clipPath><g clip-path="url(#y)"><symbol id="z"><path d="M.063.676h.355V.657L.198 0H.143l.198.596H.159A.17.17 0 0 1 .08.583a.164.164 0 0 1-.066-.07L0 .52l.063.157z"/></symbol><use xlink:href="#f" transform="matrix(10 0 0 -10 140.307 146.445)"/><use xlink:href="#g" transform="matrix(10 0 0 -10 145.694 146.465)"/><use xlink:href="#z" transform="matrix(10 0 0 -10 147.877 146.465)"/></g></g><path stroke-width=".2" stroke-miterlimit="3.25" fill="none" stroke="#000" d="M166.224 133.328v-2.442"/><clipPath id="A"><path transform="translate(-66 -5)" d="M224 140v15h16v-15" fill-rule="evenodd"/></clipPath><g clip-path="url(#A)"><clipPath id="B"><path transform="translate(159.724 136.328)" d="M-2.724-2.328v17h18v-17" fill-rule="evenodd"/></clipPath><g clip-path="url(#B)"><symbol id="C"><path d="M.131.345A.463.463 0 0 0 .03.45a.16.16 0 0 0-.023.08c0 .044.017.08.05.112A.185.185 0 0 0 .19.687.187.187 0 0 0 .32.644a.13.13 0 0 0 .048-.1A.134.134 0 0 0 .341.47.383.383 0 0 0 .23.38.623.623 0 0 0 .345.273.173.173 0 0 0 .382.169a.158.158 0 0 0-.053-.12A.197.197 0 0 0 .189 0a.187.187 0 0 0-.147.06A.153.153 0 0 0 0 .162C0 .192.01.22.03.25.05.278.082.31.13.345m.077.052A.35.35 0 0 1 .282.48a.15.15 0 0 1 .016.07c0 .034-.01.06-.029.08A.105.105 0 0 1 .19.66.115.115 0 0 1 .11.63.089.089 0 0 1 .077.563c0-.017.004-.034.013-.05a.187.187 0 0 1 .037-.05l.08-.066M.154.327a.228.228 0 0 1-.06-.075.196.196 0 0 1-.02-.087C.075.123.087.089.11.064A.114.114 0 0 1 .197.026c.035 0 .063.01.084.03.021.02.032.044.032.072a.111.111 0 0 1-.019.063.699.699 0 0 1-.14.136z"/></symbol><use xlink:href="#f" transform="matrix(10 0 0 -10 160.085 146.445)"/><use xlink:href="#g" transform="matrix(10 0 0 -10 165.472 146.465)"/><use xlink:href="#C" transform="matrix(10 0 0 -10 167.89 146.445)"/></g></g><path stroke-width=".2" stroke-miterlimit="3.25" fill="none" stroke="#000" d="M186.002 133.328v-2.442"/><clipPath id="D"><path transform="translate(-66 -5)" d="M244 140v15h16v-15" fill-rule="evenodd"/></clipPath><g clip-path="url(#D)"><clipPath id="E"><path transform="translate(179.502 136.328)" d="M-2.502-2.328v17h18v-17" fill-rule="evenodd"/></clipPath><g clip-path="url(#E)"><symbol id="F"><path d="M.013 0v.018c.043 0 .082.01.118.03.037.019.072.052.106.1.034.047.058.1.071.156A.263.263 0 0 0 .17.254.157.157 0 0 0 .05.31.204.204 0 0 0 0 .452c0 .058.017.11.05.155a.185.185 0 0 0 .296.015.306.306 0 0 0 .071-.206A.411.411 0 0 0 .363.21a.458.458 0 0 0-.15-.158A.305.305 0 0 0 .04 0H.013m.303.34a.78.78 0 0 1 .009.102.362.362 0 0 1-.016.102.191.191 0 0 1-.046.084.092.092 0 0 1-.067.03.097.097 0 0 1-.076-.04C.098.594.087.555.087.503.087.434.1.38.13.342A.095.095 0 0 1 .208.298C.223.3.241.303.262.31.282.317.3.327.316.34z"/></symbol><use xlink:href="#f" transform="matrix(10 0 0 -10 179.863 146.445)"/><use xlink:href="#g" transform="matrix(10 0 0 -10 185.25 146.465)"/><use xlink:href="#F" transform="matrix(10 0 0 -10 187.458 146.465)"/></g></g><path stroke-width=".2" stroke-miterlimit="3.25" fill="none" stroke="#000" d="M205.78 133.328v-2.442"/><clipPath id="G"><path transform="translate(-66 -5)" d="M266 140v15h11v-15" fill-rule="evenodd"/></clipPath><g clip-path="url(#G)"><clipPath id="H"><path transform="translate(201.78 136.328)" d="M-2.78-2.328v17h13v-17" fill-rule="evenodd"/></clipPath><g clip-path="url(#H)"><use xlink:href="#h" transform="matrix(10 0 0 -10 202.952 146.328)"/><use xlink:href="#g" transform="matrix(10 0 0 -10 207.528 146.465)"/></g></g><path stroke-width=".2" stroke-miterlimit="3.25" fill="none" stroke="#000" d="M3.88 133.328H209.9M8 90.885h2.442"/><clipPath id="I"><path transform="translate(-66 -5)" d="M65 88v15h7V88" fill-rule="evenodd"/></clipPath><g clip-path="url(#I)"><clipPath id="J"><path transform="translate(0 84.885)" d="M-2-2.885v17h9v-17" fill-rule="evenodd"/></clipPath><g clip-path="url(#J)"><use xlink:href="#h" transform="matrix(10 0 0 -10 1.172 94.885)"/></g></g><path stroke-width=".2" stroke-miterlimit="3.25" fill="none" stroke="#000" d="M8 48.443h2.442"/><clipPath id="K"><path transform="translate(-66 -5)" d="M65 46v15h7V46" fill-rule="evenodd"/></clipPath><g clip-path="url(#K)"><clipPath id="L"><path transform="translate(0 42.443)" d="M-2-2.443v17h9v-17" fill-rule="evenodd"/></clipPath><g clip-path="url(#L)"><use xlink:href="#k" transform="matrix(10 0 0 -10 .215 52.443)"/></g></g><path stroke-width=".2" stroke-miterlimit="3.25" fill="none" stroke="#000" d="M8 6h2.442"/><clipPath id="M"><path transform="translate(-66 -5)" d="M65 4v14h7V4" fill-rule="evenodd"/></clipPath><g clip-path="url(#M)"><clipPath id="N"><path d="M-2-2v16h9V-2" fill-rule="evenodd"/></clipPath><g clip-path="url(#N)"><use xlink:href="#n" transform="matrix(10 0 0 -10 .405 10.117)"/></g></g><path stroke-width=".2" stroke-miterlimit="3.25" fill="none" stroke="#000" d="M8 133.328V6"/></g></g></svg>