<svg xmlns="http://www.w3.org/2000/svg" xmlns:xlink="http://www.w3.org/1999/xlink" width="202pt" height="192" viewBox="0 0 202 144"><clipPath id="a"><path transform="translate(-66 -5)" d="M66 5v144h202V5" fill-rule="evenodd"/></clipPath><g clip-path="url(#a)"><clipPath id="b"><path transform="translate(-66 -5)" d="M64 3v148h206V3" fill-rule="evenodd"/></clipPath><g clip-path="url(#b)"><clipPath id="c"><path transform="translate(-66 -5)" d="M70 11v122h197V11" fill-rule="evenodd"/></clipPath><g clip-path="url(#c)"><path stroke-width="2" stroke-linecap="square" stroke-miterlimit="3.25" fill="none" stroke="#3f3d99" d="m8 127.652.058-.015.058-.015.116-.031.232-.061.463-.127.928-.27.058-.017.057-.018.116-.035.232-.072.464-.147.927-.31.063-.021.063-.022.125-.044.252-.089.502-.182 1.006-.38 2.01-.826.059-.026.059-.025.117-.051.235-.103.469-.209.938-.432 1.878-.909 3.681-1.941 3.993-2.269 3.726-2.179 4.039-2.314 3.964-2.105.058-.028.058-.029.116-.058.231-.114.462-.225.925-.438.057-.026.058-.027.116-.053.231-.106.462-.207.925-.4.062-.027.063-.026.125-.052.251-.103.501-.202 1.003-.385.063-.023.062-.023.126-.045.25-.09.502-.175 1.002-.328.059-.018.058-.018.117-.036.234-.071.468-.136.059-.016.058-.017.117-.032.234-.064.468-.122.059-.015.058-.015.117-.029.234-.057.468-.108.936-.194.057-.011.058-.011.114-.021.23-.041.459-.078.057-.009.057-.009.115-.017.229-.034.459-.063.057-.007.058-.007.115-.014.229-.027.057-.006.058-.007.114-.012.23-.022.057-.006.057-.005.115-.01.229-.019.058-.005.057-.004.115-.009.229-.015.062-.004.063-.003.124-.007.062-.004.063-.003.124-.005.062-.003.062-.003.063-.002.062-.002.062-.002.062-.002.125-.004.062-.001.062-.002.062-.001.063-.001.062-.001.062-.001.062-.001h.063l.062-.001h.311l.062.001h.062l.063.001.062.001.062.001.062.001.062.001.063.002.062.001.062.002.062.002.063.002.124.004.062.003.062.003.125.005.062.003.062.003.125.007.062.004.062.003.125.008.062.004.062.005.125.009.248.019.058.005.059.005.116.011.232.022.058.006.058.006.116.013.232.026.058.007.058.007.117.014.232.031.464.066.058.009.058.009.117.018.232.038.464.082.058.011.058.011.116.022.233.046.464.098.063.013.063.014.126.029.252.058.503.123 1.007.272.063.018.063.018.126.037.251.076.504.157 1.007.338.062.022.061.022.124.045.247.089.494.186.989.392 1.977.867.058.027.057.027.115.054.231.109.461.222.922.459 1.844.971 3.999 2.295 3.733 2.264 4.045 2.42.062.036.062.035.125.072.248.142.496.282.993.552 1.986 1.044.058.029.058.029.115.058.232.114.463.225.926.431.058.026.058.026.116.052.231.102.464.199.926.377.063.024.062.024.126.049.251.094.502.183.063.022.063.022.125.044.251.085.502.163.063.02.063.019.125.039.251.075.503.142.062.017.063.017.126.033.251.064.502.12.058.013.059.013.117.026.235.05.058.012.059.012.117.023.234.044.059.011.059.011.117.02.234.039.469.07.059.008.058.008.117.015.235.029.058.006.059.007.117.012.235.023.058.005.059.005.117.009.059.005.058.004.117.008.059.004.059.004.058.003.059.003.058.003.059.003.117.005.058.002.057.002.058.002.057.002.058.002.057.001.057.001.058.001.057.001.058.001H101.52l.057-.001.057-.001.058-.001.057-.001.058-.001.057-.002.058-.002.057-.002.058-.002.057-.002.057-.003.058-.002.057-.003.058-.003.115-.007.057-.003.058-.004.115-.008.057-.005.057-.004.115-.01.058-.005.057-.006.115-.011.23-.025.057-.006.058-.007.115-.014.23-.031.057-.009.057-.008.115-.018.23-.037.062-.01.063-.011.124-.023.25-.048.062-.012.062-.013.125-.026.249-.056.063-.014.062-.015.125-.03.249-.063.499-.137.062-.018.062-.019.125-.038.249-.078.499-.169.062-.022.062-.023.125-.045.249-.094.499-.201.058-.024.058-.025.117-.05.232-.102.466-.216.93-.473.058-.031.059-.032.116-.064.232-.13.466-.272.93-.586.063-.042.063-.042.127-.085.252-.173.504-.358 1.009-.766.063-.05.063-.051.126-.101.252-.207.504-.424 1.009-.899.062-.057.062-.058.123-.115.248-.235.495-.481.99-1.007 1.98-2.198.058-.067.058-.068.115-.136.231-.275.462-.559.924-1.154 1.847-2.451 4.006-5.909 3.74-6.119 3.666-6.398 3.978-7.17 3.712-6.681 4.023-6.97 3.757-6.005.058-.087.057-.086.116-.174.23-.344.46-.68.921-1.325 1.842-2.499.062-.081.063-.08.124-.161.25-.318.5-.624.999-1.196.062-.073.062-.072.125-.143.25-.284.499-.552.999-1.049.059-.059.058-.059.116-.116.233-.229.467-.445.932-.838.058-.05.058-.049.117-.099.233-.193.466-.373.932-.69.063-.044.064-.044.126-.086.252-.168.506-.318.063-.038.063-.038.126-.075.253-.145.505-.272.063-.032.063-.032.126-.063.253-.121.505-.225.063-.026.063-.026.127-.051.252-.097.505-.176.062-.02.062-.02.124-.038.248-.071.062-.017.062-.017.124-.032.248-.06.062-.014.062-.013.124-.026.062-.013.062-.012.124-.023.062-.011.062-.011.124-.02.062-.009.062-.009.124-.017.062-.008.062-.008.124-.014.062-.006.062-.006.124-.011.062-.005.062-.005.062-.004.062-.004.062-.003.062-.003.062-.003.062-.002.062-.002.062-.002.062-.001.062-.001h.186l.062.001.062.001.062.002.062.002.062.002.062.003.062.003.062.003.062.004.057.004.058.004.058.005.058.005.058.005.058.005.115.012.058.007.058.007.116.015.231.033.058.009.058.01.115.02.231.044.058.012.058.013.116.025.231.055.058.014.058.015.115.031.232.066.058.017.057.017.116.036.231.077.058.019.058.021.116.041.231.087.463.189.062.028.063.027.125.057.251.118.502.254.062.033.063.034.126.069.25.142.502.304.063.039.062.04.126.081.251.167.501.352 1.003.775.059.048.058.049.118.098.234.2.468.414.937.89.058.058.059.059.117.118.234.24.468.494.937 1.045.057.067.058.067.114.134.23.272.459.558.918 1.167 1.837 2.532.062.091.062.09.125.182.249.368.498.748.996 1.547 1.992 3.285 3.719 6.7.064.123.065.122.13.245.259.493.519.993 1.038 2.01.065.127.065.127.129.254.26.509.519 1.023.064.128.065.129.13.257.259.515.065.129.065.129.13.258.065.129.065.129.064.13.065.129"/></g><path stroke-width=".2" stroke-miterlimit="3.25" fill="none" stroke="#000" d="M26.896 127.652v-2.326"/><clipPath id="d"><path transform="translate(-66 -5)" d="M85 134v15h16v-15" fill-rule="evenodd"/></clipPath><g clip-path="url(#d)"><clipPath id="e"><path transform="translate(20.396 130.652)" d="M-2.396-2.652v17h18v-17" fill-rule="evenodd"/></clipPath><g clip-path="url(#e)"><symbol id="f"><path d="M0 .339c0 .075.011.14.034.195a.273.273 0 0 0 .091.122c.03.02.06.031.09.031C.268.688.313.662.354.61A.41.41 0 0 0 .428.35.514.514 0 0 0 .395.152.26.26 0 0 0 .31.036.173.173 0 0 0 .21 0C.149 0 .096.037.054.112A.455.455 0 0 0 0 .339M.096.327c0-.091.01-.166.033-.223C.148.055.176.03.212.03.23.03.248.039.267.054a.152.152 0 0 1 .043.08.965.965 0 0 1 .023.237.648.648 0 0 1-.024.189.168.168 0 0 1-.045.08.077.077 0 0 1-.107-.014.249.249 0 0 1-.049-.128A1.185 1.185 0 0 1 .096.327z"/></symbol><symbol id="g"><path d="M.054.108A.052.052 0 0 0 .093.092.052.052 0 0 0 .108.054.053.053 0 0 0 .092.016.052.052 0 0 0 .054 0 .053.053 0 0 0 0 .054C0 .07.005.082.016.093c.01.01.023.015.038.015z"/></symbol><symbol id="h"><path d="m0 .597.161.079h.016v-.56C.177.08.18.057.182.048a.037.037 0 0 1 .02-.02A.164.164 0 0 1 .26.017V0H.01v.018c.032 0 .052.003.061.008.01.005.016.011.02.019a.262.262 0 0 1 .005.072v.357c0 .048-.002.08-.005.093A.038.038 0 0 1 .079.59a.032.032 0 0 1-.021.007.13.13 0 0 1-.05-.015L0 .597z"/></symbol><use xlink:href="#f" transform="matrix(10 0 0 -10 20.757 140.77)"/><use xlink:href="#g" transform="matrix(10 0 0 -10 26.144 140.789)"/><use xlink:href="#h" transform="matrix(10 0 0 -10 29.128 140.652)"/></g></g><path stroke-width=".2" stroke-miterlimit="3.25" fill="none" stroke="#000" d="M45.793 127.652v-2.326"/><clipPath id="i"><path transform="translate(-66 -5)" d="M104 134v15h16v-15" fill-rule="evenodd"/></clipPath><g clip-path="url(#i)"><clipPath id="j"><path transform="translate(39.293 130.652)" d="M-2.293-2.652v17h18v-17" fill-rule="evenodd"/></clipPath><g clip-path="url(#j)"><symbol id="k"><path d="M.437.127.391 0H0v.018c.115.105.196.19.243.257.047.066.07.127.07.182a.144.144 0 0 1-.039.104.123.123 0 0 1-.092.04.144.144 0 0 1-.088-.029A.165.165 0 0 1 .037.49H.02c.008.06.029.106.063.138a.176.176 0 0 0 .126.049.186.186 0 0 0 .134-.052.163.163 0 0 0 .054-.122.236.236 0 0 0-.023-.1.663.663 0 0 0-.117-.168 3.477 3.477 0 0 0-.152-.16h.173c.035 0 .06.001.074.004a.099.099 0 0 1 .038.015c.012.008.021.02.03.034h.018z"/></symbol><use xlink:href="#f" transform="matrix(10 0 0 -10 39.654 140.77)"/><use xlink:href="#g" transform="matrix(10 0 0 -10 45.041 140.789)"/><use xlink:href="#k" transform="matrix(10 0 0 -10 47.068 140.652)"/></g></g><path stroke-width=".2" stroke-miterlimit="3.25" fill="none" stroke="#000" d="M64.689 127.652v-2.326"/><clipPath id="l"><path transform="translate(-66 -5)" d="M123 134v15h16v-15" fill-rule="evenodd"/></clipPath><g clip-path="url(#l)"><clipPath id="m"><path transform="translate(58.189 130.652)" d="M-2.189-2.652v17h18v-17" fill-rule="evenodd"/></clipPath><g clip-path="url(#m)"><symbol id="n"><path d="M.01.548A.268.268 0 0 0 .082.65a.162.162 0 0 0 .107.036.149.149 0 0 0 .123-.051.127.127 0 0 0 .032-.083c0-.048-.03-.098-.091-.15A.197.197 0 0 0 .345.336.177.177 0 0 0 .376.231.22.22 0 0 0 .322.082C.274.027.205 0 .115 0 .071 0 .04.006.024.017.008.027 0 .04 0 .052c0 .01.004.018.011.025a.04.04 0 0 0 .028.01.084.084 0 0 0 .025-.003.285.285 0 0 0 .038-.018.245.245 0 0 1 .04-.018.135.135 0 0 1 .039-.006c.033 0 .062.013.086.04a.127.127 0 0 1 .037.09A.176.176 0 0 1 .26.29a.199.199 0 0 1-.057.035.184.184 0 0 1-.075.016H.111v.015a.2.2 0 0 1 .077.028.147.147 0 0 1 .057.055.145.145 0 0 1 .018.07.108.108 0 0 1-.11.113C.103.621.06.594.026.54L.01.548z"/></symbol><use xlink:href="#f" transform="matrix(10 0 0 -10 58.55 140.77)"/><use xlink:href="#g" transform="matrix(10 0 0 -10 63.937 140.789)"/><use xlink:href="#n" transform="matrix(10 0 0 -10 66.154 140.77)"/></g></g><path stroke-width=".2" stroke-miterlimit="3.25" fill="none" stroke="#000" d="M83.585 127.652v-2.326"/><clipPath id="o"><path transform="translate(-66 -5)" d="M142 134v15h16v-15" fill-rule="evenodd"/></clipPath><g clip-path="url(#o)"><clipPath id="p"><path transform="translate(77.085 130.652)" d="M-2.085-2.652v17h18v-17" fill-rule="evenodd"/></clipPath><g clip-path="url(#p)"><symbol id="q"><path d="M.45.244v-.07H.36V0H.28v.175H0v.062l.307.439h.054V.244H.45m-.17 0v.329L.048.244H.28z"/></symbol><use xlink:href="#f" transform="matrix(10 0 0 -10 77.446 140.77)"/><use xlink:href="#g" transform="matrix(10 0 0 -10 82.833 140.789)"/><use xlink:href="#q" transform="matrix(10 0 0 -10 84.801 140.652)"/></g></g><path stroke-width=".2" stroke-miterlimit="3.25" fill="none" stroke="#000" d="M102.482 127.652v-2.326"/><clipPath id="r"><path transform="translate(-66 -5)" d="M160 134v15h16v-15" fill-rule="evenodd"/></clipPath><g clip-path="url(#r)"><clipPath id="s"><path transform="translate(95.982 130.652)" d="M-2.982-2.652v17h18v-17" fill-rule="evenodd"/></clipPath><g clip-path="url(#s)"><symbol id="t"><path d="M.386.674.348.59h-.2L.106.502A.349.349 0 0 0 .311.406.216.216 0 0 0 .375.25.22.22 0 0 0 .354.153.257.257 0 0 0 .229.027.264.264 0 0 0 .114 0C.074 0 .045.007.027.02.009.034 0 .049 0 .065c0 .01.004.017.011.024a.04.04 0 0 0 .029.01.056.056 0 0 0 .022-.003.198.198 0 0 0 .032-.02A.13.13 0 0 1 .168.05c.039 0 .072.015.1.043A.144.144 0 0 1 .313.2c0 .04-.013.077-.039.112a.247.247 0 0 1-.106.08.432.432 0 0 1-.145.026l.127.257h.237z"/></symbol><use xlink:href="#f" transform="matrix(10 0 0 -10 96.343 140.77)"/><use xlink:href="#g" transform="matrix(10 0 0 -10 101.73 140.789)"/><use xlink:href="#t" transform="matrix(10 0 0 -10 104.02 140.77)"/></g></g><path stroke-width=".2" stroke-miterlimit="3.25" fill="none" stroke="#000" d="M121.378 127.652v-2.326"/><clipPath id="u"><path transform="translate(-66 -5)" d="M179 134v15h16v-15" fill-rule="evenodd"/></clipPath><g clip-path="url(#u)"><clipPath id="v"><path transform="translate(114.878 130.652)" d="M-2.878-2.652v17h18v-17" fill-rule="evenodd"/></clipPath><g clip-path="url(#v)"><symbol id="w"><path d="M.405.688V.668A.32.32 0 0 1 .3.644.295.295 0 0 1 .22.585.38.38 0 0 1 .152.497.53.53 0 0 1 .11.38.248.248 0 0 0 .25.43.154.154 0 0 0 .369.375a.2.2 0 0 0 .05-.14.25.25 0 0 0-.05-.152A.189.189 0 0 0 .207 0a.161.161 0 0 0-.115.045A.297.297 0 0 0 0 .27a.438.438 0 0 0 .264.395c.04.014.078.021.113.021h.028M.102.346a.843.843 0 0 1-.01-.107C.093.208.099.174.11.137A.201.201 0 0 1 .162.05a.086.086 0 0 1 .06-.023c.028 0 .054.014.076.04a.173.173 0 0 1 .034.115.298.298 0 0 1-.034.144C.276.366.245.387.204.387A.118.118 0 0 1 .164.38.395.395 0 0 1 .102.346z"/></symbol><use xlink:href="#f" transform="matrix(10 0 0 -10 115.24 140.77)"/><use xlink:href="#g" transform="matrix(10 0 0 -10 120.626 140.789)"/><use xlink:href="#w" transform="matrix(10 0 0 -10 122.868 140.77)"/></g></g><path stroke-width=".2" stroke-miterlimit="3.25" fill="none" stroke="#000" d="M140.274 127.652v-2.326"/><clipPath id="x"><path transform="translate(-66 -5)" d="M198 134v15h16v-15" fill-rule="evenodd"/></clipPath><g clip-path="url(#x)"><clipPath id="y"><path transform="translate(133.774 130.652)" d="M-2.774-2.652v17h18v-17" fill-rule="evenodd"/></clipPath><g clip-path="url(#y)"><symbol id="z"><path d="M.063.676h.355V.657L.198 0H.143l.198.596H.159A.17.17 0 0 1 .08.583a.164.164 0 0 1-.066-.07L0 .52l.063.157z"/></symbol><use xlink:href="#f" transform="matrix(10 0 0 -10 134.135 140.77)"/><use xlink:href="#g" transform="matrix(10 0 0 -10 139.522 140.789)"/><use xlink:href="#z" transform="matrix(10 0 0 -10 141.705 140.789)"/></g></g><path stroke-width=".2" stroke-miterlimit="3.25" fill="none" stroke="#000" d="M159.171 127.652v-2.326"/><clipPath id="A"><path transform="translate(-66 -5)" d="M217 134v15h16v-15" fill-rule="evenodd"/></clipPath><g clip-path="url(#A)"><clipPath id="B"><path transform="translate(152.671 130.652)" d="M-2.671-2.652v17h18v-17" fill-rule="evenodd"/></clipPath><g clip-path="url(#B)"><symbol id="C"><path d="M.131.345A.463.463 0 0 0 .03.45a.16.16 0 0 0-.023.08c0 .044.017.08.05.112A.185.185 0 0 0 .19.687.187.187 0 0 0 .32.644a.13.13 0 0 0 .048-.1A.134.134 0 0 0 .341.47.383.383 0 0 0 .23.38.623.623 0 0 0 .345.273.173.173 0 0 0 .382.169a.158.158 0 0 0-.053-.12A.197.197 0 0 0 .189 0a.187.187 0 0 0-.147.06A.153.153 0 0 0 0 .162C0 .192.01.22.03.25.05.278.082.31.13.345m.077.052A.35.35 0 0 1 .282.48a.15.15 0 0 1 .016.07c0 .034-.01.06-.029.08A.105.105 0 0 1 .19.66.115.115 0 0 1 .11.63.089.089 0 0 1 .077.563c0-.017.004-.034.013-.05a.187.187 0 0 1 .037-.05l.08-.066M.154.327a.228.228 0 0 1-.06-.075.196.196 0 0 1-.02-.087C.075.123.087.089.11.064A.114.114 0 0 1 .197.026c.035 0 .063.01.084.03.021.02.032.044.032.072a.111.111 0 0 1-.019.063.699.699 0 0 1-.14.136z"/></symbol><use xlink:href="#f" transform="matrix(10 0 0 -10 153.032 140.77)"/><use xlink:href="#g" transform="matrix(10 0 0 -10 158.419 140.789)"/><use xlink:href="#C" transform="matrix(10 0 0 -10 160.836 140.77)"/></g></g><path stroke-width=".2" stroke-miterlimit="3.25" fill="none" stroke="#000" d="M178.067 127.652v-2.326"/><clipPath id="D"><path transform="translate(-66 -5)" d="M236 134v15h16v-15" fill-rule="evenodd"/></clipPath><g clip-path="url(#D)"><clipPath id="E"><path transform="translate(171.567 130.652)" d="M-2.567-2.652v17h18v-17" fill-rule="evenodd"/></clipPath><g clip-path="url(#E)"><symbol id="F"><path d="M.013 0v.018c.043 0 .082.01.118.03.037.019.072.052.106.1.034.047.058.1.071.156A.263.263 0 0 0 .17.254.157.157 0 0 0 .05.31.204.204 0 0 0 0 .452c0 .058.017.11.05.155a.185.185 0 0 0 .296.015.306.306 0 0 0 .071-.206A.411.411 0 0 0 .363.21a.458.458 0 0 0-.15-.158A.305.305 0 0 0 .04 0H.013m.303.34a.78.78 0 0 1 .009.102.362.362 0 0 1-.016.102.191.191 0 0 1-.046.084.092.092 0 0 1-.067.03.097.097 0 0 1-.076-.04C.098.594.087.555.087.503.087.434.1.38.13.342A.095.095 0 0 1 .208.298C.223.3.241.303.262.31.282.317.3.327.316.34z"/></symbol><use xlink:href="#f" transform="matrix(10 0 0 -10 171.928 140.77)"/><use xlink:href="#g" transform="matrix(10 0 0 -10 177.315 140.789)"/><use xlink:href="#F" transform="matrix(10 0 0 -10 179.523 140.789)"/></g></g><path stroke-width=".2" stroke-miterlimit="3.25" fill="none" stroke="#000" d="M196.963 127.652v-2.326"/><clipPath id="G"><path transform="translate(-66 -5)" d="M257 134v15h11v-15" fill-rule="evenodd"/></clipPath><g clip-path="url(#G)"><clipPath id="H"><path transform="translate(192.963 130.652)" d="M-2.963-2.652v17h13v-17" fill-rule="evenodd"/></clipPath><g clip-path="url(#H)"><use xlink:href="#h" transform="matrix(10 0 0 -10 194.135 140.652)"/><use xlink:href="#g" transform="matrix(10 0 0 -10 198.711 140.789)"/></g></g><path stroke-width=".2" stroke-miterlimit="3.25" fill="none" stroke="#000" d="M4.063 127.652H200.9M8 87.101h2.325"/><clipPath id="I"><path transform="translate(-66 -5)" d="M65 85v15h7V85" fill-rule="evenodd"/></clipPath><g clip-path="url(#I)"><clipPath id="J"><path transform="translate(0 81.101)" d="M-2-2.101v17h9v-17" fill-rule="evenodd"/></clipPath><g clip-path="url(#J)"><use xlink:href="#h" transform="matrix(10 0 0 -10 1.172 91.101)"/></g></g><path stroke-width=".2" stroke-miterlimit="3.25" fill="none" stroke="#000" d="M8 46.551h2.325"/><clipPath id="K"><path transform="translate(-66 -5)" d="M65 44v15h7V44" fill-rule="evenodd"/></clipPath><g clip-path="url(#K)"><clipPath id="L"><path transform="translate(0 40.551)" d="M-2-2.551v17h9v-17" fill-rule="evenodd"/></clipPath><g clip-path="url(#L)"><use xlink:href="#k" transform="matrix(10 0 0 -10 .215 50.551)"/></g></g><path stroke-width=".2" stroke-miterlimit="3.25" fill="none" stroke="#000" d="M8 6h2.325"/><clipPath id="M"><path transform="translate(-66 -5)" d="M65 4v15h7V4" fill-rule="evenodd"/></clipPath><g clip-path="url(#M)"><clipPath id="N"><path d="M-2-2v17h9V-2" fill-rule="evenodd"/></clipPath><g clip-path="url(#N)"><use xlink:href="#n" transform="matrix(10 0 0 -10 .405 10.117)"/></g></g><path stroke-width=".2" stroke-miterlimit="3.25" fill="none" stroke="#000" d="M8 127.652V6"/></g></g></svg>