<svg xmlns="http://www.w3.org/2000/svg" xmlns:xlink="http://www.w3.org/1999/xlink" width="462.04" height="83.81pt" viewBox="0 0 346.53 83.81"><symbol id="a"><path d="M.598.221A2.25 2.25 0 0 0 0 .44V0c.189.101.389.175.598.219v.002z"/></symbol><use xlink:href="#a" transform="matrix(9.9626 0 0 -9.9626 202.254 -89.284)"/><symbol id="b"><path d="M.261 0h.201v.015C.431.015.411.031.38.075L.252.271l.083.12a.103.103 0 0 0 .081.044V.45H.258V.435c.03-.002.04-.008.04-.022C.298.401.286.379.261.348a.703.703 0 0 1-.03-.044l-.014.02a.268.268 0 0 0-.046.089c0 .014.013.021.043.022V.45H.007V.435h.009c.03 0 .046-.013.077-.06L.187.231.073.066C.043.025.033.018 0 .015V0h.145v.015c-.028 0-.04.005-.04.018 0 .006.007.021.02.041l.079.123.091-.14A.032.032 0 0 0 .301.039C.301.021.294.017.261.015V0z"/></symbol><symbol id="c"><path d="M.461.668H.326V.653C.358.653.374.644.374.628A.045.045 0 0 0 .37.611L.273.335.158.588a.102.102 0 0 0-.01.038c0 .018.015.025.058.027v.015H0V.654C.026.65.043.639.051.622L.165.376.168.368l.015-.03A.319.319 0 0 0 .227.237a.407.407 0 0 0-.04-.108C.173.103.151.084.137.084a.06.06 0 0 0-.025.007.152.152 0 0 1-.053.011.044.044 0 0 1-.043-.044C.016.025.048 0 .09 0c.067 0 .115.056.169.2l.154.408C.426.64.437.65.461.653v.015z"/></symbol><symbol id="d"><path d="M.391.135.373.139C.363.089.357.073.344.056.33.039.296.03.245.03H.107l.269.405V.45H.029L.026.332h.018C.053.405.068.42.128.42h.138L0 .015V0h.377l.014.135z"/></symbol><use xlink:href="#b" transform="matrix(9.9626 0 0 -9.9626 128.7 -76.532)"/><use xlink:href="#c" transform="matrix(9.9626 0 0 -9.9626 208.37 -99.267)"/><use xlink:href="#d" transform="matrix(9.9626 0 0 -9.9626 143.743 -131.327)"/><symbol id="e"><path d="M1.052.335a.04.04 0 0 1 .028.038.04.04 0 0 1-.053.038L.028.077A.04.04 0 0 1 0 .04.04.04 0 0 1 .04 0l.012.003 1 .332z"/></symbol><symbol id="f"><path d="M.139 0c.148.155.315.288.498.397v.001A2.307 2.307 0 0 0 0 .417L.139 0z"/></symbol><use xlink:href="#e" transform="matrix(9.9626 0 0 -9.9626 123.15 -.418)"/><use xlink:href="#e" transform="matrix(9.9626 0 0 -9.9626 133.114 -3.739)"/><use xlink:href="#e" transform="matrix(9.9626 0 0 -9.9626 143.076 -7.06)"/><use xlink:href="#e" transform="matrix(9.9626 0 0 -9.9626 153.039 -10.38)"/><use xlink:href="#e" transform="matrix(9.9626 0 0 -9.9626 163.002 -13.701)"/><use xlink:href="#e" transform="matrix(9.9626 0 0 -9.9626 172.964 -17.022)"/><use xlink:href="#e" transform="matrix(9.9626 0 0 -9.9626 182.927 -20.343)"/><use xlink:href="#e" transform="matrix(9.9626 0 0 -9.9626 192.889 -23.664)"/><use xlink:href="#e" transform="matrix(9.9626 0 0 -9.9626 202.852 -26.984)"/><use xlink:href="#e" transform="matrix(9.9626 0 0 -9.9626 212.815 -30.305)"/><use xlink:href="#f" transform="matrix(9.9626 0 0 -9.9626 216.81 -30.056)"/><symbol id="g"><path d="M.464.475H.313V.451C.356.449.368.442.368.418A.138.138 0 0 0 .357.373L.285.191.206.394a.1.1 0 0 0-.009.031c0 .015.01.022.035.024L.25.451v.024H0V.451C.023.448.029.445.035.436A1.52 1.52 0 0 0 .1.296L.22 0h.026l.16.396C.425.44.433.448.464.451v.024z"/></symbol><use xlink:href="#g" transform="matrix(9.9626 0 0 -9.9626 163.61 -25.583)"/><use xlink:href="#e" transform="matrix(9.9626 0 0 -9.9626 13.562 60.355)"/><use xlink:href="#e" transform="matrix(9.9626 0 0 -9.9626 23.525 57.034)"/><use xlink:href="#e" transform="matrix(9.9626 0 0 -9.9626 33.487 53.713)"/><use xlink:href="#e" transform="matrix(9.9626 0 0 -9.9626 43.45 50.392)"/><use xlink:href="#e" transform="matrix(9.9626 0 0 -9.9626 53.413 47.07)"/><use xlink:href="#e" transform="matrix(9.9626 0 0 -9.9626 63.375 43.75)"/><use xlink:href="#e" transform="matrix(9.9626 0 0 -9.9626 73.338 40.429)"/><use xlink:href="#e" transform="matrix(9.9626 0 0 -9.9626 83.3 37.109)"/><use xlink:href="#e" transform="matrix(9.9626 0 0 -9.9626 93.263 33.788)"/><use xlink:href="#e" transform="matrix(9.9626 0 0 -9.9626 103.226 30.466)"/><use xlink:href="#f" transform="matrix(9.9626 0 0 -9.9626 107.22 30.716)"/><path stroke-width=".797" stroke-miterlimit="10" fill="none" stroke="#000" d="M193.287 59.956V30.068"/><symbol id="h"><path d="M.44 0a2.25 2.25 0 0 0-.219.598H.219A2.25 2.25 0 0 0 0 0h.44z"/></symbol><symbol id="i"><path d="M.068 1.068a.044.044 0 0 1-.028.012.04.04 0 0 1-.04-.04c0-.011.005-.021.012-.029l.999-.999A.045.045 0 0 1 1.04 0a.04.04 0 0 1 .04.04c0 .01-.005.02-.012.028l-1 1z"/></symbol><symbol id="j"><path d="M.578.311a2.28 2.28 0 0 0-.577.268L0 .578C.115.399.204.205.267 0l.311.311z"/></symbol><use xlink:href="#h" transform="matrix(9.9626 0 0 -9.9626 191.095 36.045)"/><use xlink:href="#i" transform="matrix(9.9626 0 0 -9.9626 292.515 60.354)"/><use xlink:href="#i" transform="matrix(9.9626 0 0 -9.9626 282.553 50.391)"/><use xlink:href="#i" transform="matrix(9.9626 0 0 -9.9626 272.59 40.428)"/><use xlink:href="#i" transform="matrix(9.9626 0 0 -9.9626 262.627 30.466)"/><use xlink:href="#j" transform="matrix(9.9626 0 0 -9.9626 263.036 25.884)"/><symbol id="k"><path d="M.684.475H.549V.451C.586.447.597.439.597.416A.678.678 0 0 0 .553.288 3.138 3.138 0 0 1 .518.194C.508.235.505.247.484.321a.71.71 0 0 0-.027.106c0 .016.01.021.048.024v.024H.271V.451C.31.447.311.446.33.38L.336.361.268.19.244.254a.93.93 0 0 0-.021.054.51.51 0 0 0-.039.115c0 .016.01.024.038.028v.024H0V.451C.026.446.03.44.057.374L.205 0h.024l.125.31L.456 0h.023l.155.401c.016.037.024.045.05.05v.024z"/></symbol><symbol id="l"><path d="M.327.001a.495.495 0 0 0 .132.026l.062.007v.023C.477.059.465.072.465.115v.36H.264V.451C.314.447.326.435.326.392V.109C.293.076.272.065.244.065c-.041 0-.056.02-.056.071v.339H0V.451C.041.443.049.434.049.392V.14c0-.088.05-.14.133-.14.052 0 .087.016.145.066V.001z"/></symbol><use xlink:href="#g" transform="matrix(9.9626 0 0 -9.9626 54.02 35.188)"/><use xlink:href="#k" transform="matrix(9.9626 0 0 -9.9626 203.48 40.17)"/><use xlink:href="#l" transform="matrix(9.9626 0 0 -9.9626 293.073 35.188)"/><symbol id="m"><path d="M.18.676 0 .585V.571l.027.011a.144.144 0 0 0 .045.011c.021 0 .03-.015.03-.047V.093C.102.06.094.037.078.028.063.019.049.016.007.015V0h.276v.015C.204.016.188.026.188.074v.6L.18.676z"/></symbol><use xlink:href="#m" transform="matrix(9.9626 0 0 -9.9626 164.505 505.873)"/></svg>